<svg xmlns="http://www.w3.org/2000/svg" xmlns:xlink="http://www.w3.org/1999/xlink" width="500" zoomAndPan="magnify" viewBox="0 0 375 374.999991" height="500" preserveAspectRatio="xMidYMid meet" version="1.0"><defs><clipPath id="e9c3eba9da"><path d="M 8.3125 8.3125 L 366.8125 8.3125 L 366.8125 366.8125 L 8.3125 366.8125 Z M 8.3125 8.3125 " clip-rule="nonzero"/></clipPath><clipPath id="7015f73360"><path d="M 57.0625 156.722656 L 138.621094 156.722656 L 138.621094 262.8125 L 57.0625 262.8125 Z M 57.0625 156.722656 " clip-rule="nonzero"/></clipPath><clipPath id="a90489a24b"><path d="M 74.3125 156.722656 L 121.371094 156.722656 C 130.898438 156.722656 138.621094 164.445312 138.621094 173.972656 L 138.621094 245.558594 C 138.621094 255.085938 130.898438 262.808594 121.371094 262.808594 L 74.3125 262.808594 C 64.785156 262.808594 57.0625 255.085938 57.0625 245.558594 L 57.0625 173.972656 C 57.0625 164.445312 64.785156 156.722656 74.3125 156.722656 Z M 74.3125 156.722656 " clip-rule="nonzero"/></clipPath><clipPath id="91281b8984"><path d="M 185.632812 192.5625 L 256.695312 192.5625 L 256.695312 294.71875 L 185.632812 294.71875 Z M 185.632812 192.5625 " clip-rule="nonzero"/></clipPath><clipPath id="7f9ae219a0"><path d="M 202.882812 192.5625 L 239.445312 192.5625 C 248.972656 192.5625 256.695312 200.285156 256.695312 209.8125 L 256.695312 277.375 C 256.695312 286.902344 248.972656 294.625 239.445312 294.625 L 202.882812 294.625 C 193.355469 294.625 185.632812 286.902344 185.632812 277.375 L 185.632812 209.8125 C 185.632812 200.285156 193.355469 192.5625 202.882812 192.5625 Z M 202.882812 192.5625 " clip-rule="nonzero"/></clipPath><clipPath id="eb612a595b"><path d="M 48.683594 171.976562 L 138.683594 171.976562 L 138.683594 247.726562 L 48.683594 247.726562 Z M 48.683594 171.976562 " clip-rule="nonzero"/></clipPath><clipPath id="671baed2d8"><path d="M 179.402344 218 L 220 218 L 220 274 L 179.402344 274 Z M 179.402344 218 " clip-rule="nonzero"/></clipPath><clipPath id="7dbdb1c302"><path d="M 246 246 L 255 246 L 255 286.15625 L 246 286.15625 Z M 246 246 " clip-rule="nonzero"/></clipPath><clipPath id="ca9c3cacef"><path d="M 251 214 L 256.652344 214 L 256.652344 246 L 251 246 Z M 251 214 " clip-rule="nonzero"/></clipPath><clipPath id="47cde75c42"><path d="M 218 208.90625 L 254 208.90625 L 254 225 L 218 225 Z M 218 208.90625 " clip-rule="nonzero"/></clipPath><clipPath id="998e215756"><path d="M 138.621094 61.621094 L 277.273438 61.621094 L 277.273438 164.210938 L 138.621094 164.210938 Z M 138.621094 61.621094 " clip-rule="nonzero"/></clipPath><clipPath id="3dfe782b85"><path d="M 155.871094 61.621094 L 259.828125 61.621094 C 264.402344 61.621094 268.792969 63.441406 272.027344 66.675781 C 275.261719 69.910156 277.078125 74.296875 277.078125 78.871094 L 277.078125 146.960938 C 277.078125 151.535156 275.261719 155.921875 272.027344 159.15625 C 268.792969 162.390625 264.402344 164.210938 259.828125 164.210938 L 155.871094 164.210938 C 151.296875 164.210938 146.910156 162.390625 143.675781 159.15625 C 140.441406 155.921875 138.621094 151.535156 138.621094 146.960938 L 138.621094 78.871094 C 138.621094 74.296875 140.441406 69.910156 143.675781 66.675781 C 146.910156 63.441406 151.296875 61.621094 155.871094 61.621094 Z M 155.871094 61.621094 " clip-rule="nonzero"/></clipPath><clipPath id="e34c5847d7"><path d="M 138.621094 106.058594 L 277.371094 106.058594 L 277.371094 192.308594 L 138.621094 192.308594 Z M 138.621094 106.058594 " clip-rule="nonzero"/></clipPath><clipPath id="67ffaffcba"><path d="M 22.390625 22.390625 L 352.390625 22.390625 L 352.390625 352.390625 L 22.390625 352.390625 Z M 22.390625 22.390625 " clip-rule="nonzero"/></clipPath><clipPath id="44e54223fe"><path d="M 1.121094 1.121094 L 373.871094 1.121094 L 373.871094 373.871094 L 1.121094 373.871094 Z M 1.121094 1.121094 " clip-rule="nonzero"/></clipPath></defs><g clip-path="url(#e9c3eba9da)"><path fill="#bb0d67" d="M 187.476562 14.753906 C 282.867188 14.753906 360.199219 92.089844 360.199219 187.476562 C 360.199219 282.867188 282.867188 360.199219 187.476562 360.199219 C 92.085938 360.199219 14.753906 282.867188 14.753906 187.476562 C 14.753906 92.089844 92.085938 14.753906 187.476562 14.753906 Z M 187.476562 8.300781 C 88.519531 8.300781 8.300781 88.519531 8.300781 187.476562 C 8.300781 286.4375 88.519531 366.65625 187.476562 366.65625 C 286.4375 366.65625 366.65625 286.4375 366.65625 187.476562 C 366.65625 88.519531 286.4375 8.300781 187.476562 8.300781 Z M 273.355469 107.761719 L 273.355469 182.699219 L 252.234375 169.058594 L 212.300781 193.855469 L 205.582031 198.03125 L 201.652344 200.46875 L 201.652344 85.566406 L 156.269531 113.691406 L 156.269531 163.125 L 145.617188 155.917969 L 145.617188 107.761719 L 212.300781 66.4375 Z M 38.347656 187.476562 C 38.347656 105.113281 105.113281 38.351562 187.476562 38.351562 C 269.839844 38.351562 336.605469 105.113281 336.605469 187.476562 C 336.605469 225.535156 322.328125 260.246094 298.863281 286.597656 L 298.863281 207.179688 L 252.402344 175.730469 L 201.652344 207.179688 L 201.652344 335.917969 C 196.984375 336.355469 192.261719 336.605469 187.476562 336.605469 C 182.695312 336.605469 177.96875 336.355469 173.300781 335.917969 L 173.300781 181.875 L 126.835938 150.421875 L 76.089844 181.875 L 76.089844 286.597656 C 52.628906 260.246094 38.347656 225.535156 38.347656 187.476562 Z M 84.195312 186.386719 L 118.734375 164.984375 L 118.734375 319.804688 C 106.039062 313.195312 94.421875 304.820312 84.195312 294.992188 Z M 209.757812 211.691406 L 244.296875 190.289062 L 244.296875 325.371094 C 233.375 329.875 221.804688 333.136719 209.757812 334.941406 Z M 23.402344 187.476562 C 23.402344 278.09375 96.859375 351.554688 187.476562 351.554688 C 278.09375 351.554688 351.554688 278.09375 351.554688 187.476562 C 351.554688 96.859375 278.09375 23.402344 187.476562 23.402344 C 96.859375 23.402344 23.402344 96.859375 23.402344 187.476562 " fill-opacity="1" fill-rule="nonzero"/></g><g clip-path="url(#7015f73360)"><g clip-path="url(#a90489a24b)"><path fill="#ffffff" d="M 57.0625 156.722656 L 138.621094 156.722656 L 138.621094 262.8125 L 57.0625 262.8125 Z M 57.0625 156.722656 " fill-opacity="1" fill-rule="nonzero"/></g></g><g clip-path="url(#91281b8984)"><g clip-path="url(#7f9ae219a0)"><path fill="#ffffff" d="M 185.632812 192.5625 L 256.695312 192.5625 L 256.695312 294.71875 L 185.632812 294.71875 Z M 185.632812 192.5625 " fill-opacity="1" fill-rule="nonzero"/></g></g><g clip-path="url(#eb612a595b)"><path fill="#bb0d67" d="M 136.007812 185.4375 C 137.445312 185.4375 138.609375 184.273438 138.609375 182.835938 C 138.609375 181.402344 137.445312 180.238281 136.007812 180.238281 C 135.03125 180.238281 134.179688 180.777344 133.734375 181.578125 L 96.128906 181.578125 C 96.097656 181.542969 96.074219 181.5 96.0625 181.453125 L 94.917969 176.554688 C 94.617188 175.257812 93.875 174.085938 92.832031 173.257812 C 91.789062 172.433594 90.484375 171.976562 89.152344 171.976562 L 83.421875 171.976562 C 82.09375 171.976562 80.785156 172.433594 79.742188 173.257812 C 78.699219 174.085938 77.957031 175.257812 77.65625 176.554688 L 76.511719 181.453125 C 76.492188 181.546875 76.425781 181.617188 76.332031 181.648438 C 75.402344 181.984375 74.476562 182.367188 73.585938 182.789062 C 73.492188 182.832031 73.394531 182.828125 73.316406 182.777344 L 69.039062 180.121094 C 67.910156 179.417969 66.558594 179.117188 65.238281 179.269531 C 63.914062 179.421875 62.667969 180.023438 61.726562 180.964844 L 57.675781 185.015625 C 56.734375 185.953125 56.132812 187.203125 55.980469 188.523438 C 55.828125 189.847656 56.132812 191.195312 56.835938 192.328125 L 59.492188 196.601562 C 59.542969 196.683594 59.546875 196.78125 59.503906 196.871094 C 59.078125 197.761719 58.695312 198.6875 58.363281 199.621094 C 58.332031 199.710938 58.257812 199.777344 58.164062 199.800781 L 53.265625 200.941406 C 51.96875 201.246094 50.800781 201.988281 49.972656 203.03125 C 49.144531 204.070312 48.691406 205.378906 48.691406 206.710938 L 48.691406 212.949219 C 48.691406 213.957031 49.035156 214.953125 49.664062 215.742188 C 50.292969 216.535156 51.179688 217.097656 52.164062 217.328125 L 57.285156 218.523438 C 57.941406 218.675781 58.472656 219.148438 58.699219 219.789062 C 59.027344 220.710938 59.40625 221.621094 59.824219 222.503906 C 60.117188 223.117188 60.078125 223.828125 59.722656 224.402344 L 56.945312 228.871094 C 56.414062 229.730469 56.183594 230.753906 56.296875 231.757812 C 56.414062 232.761719 56.871094 233.710938 57.585938 234.425781 L 61.816406 238.65625 C 62.53125 239.371094 63.480469 239.828125 64.484375 239.945312 C 65.488281 240.058594 66.515625 239.828125 67.371094 239.296875 L 71.839844 236.519531 C 72.414062 236.164062 73.125 236.125 73.738281 236.417969 C 74.621094 236.835938 75.53125 237.214844 76.453125 237.542969 C 77.09375 237.769531 77.566406 238.300781 77.71875 238.957031 L 78.914062 244.078125 C 79.144531 245.0625 79.707031 245.949219 80.5 246.578125 C 81.292969 247.207031 82.285156 247.550781 83.292969 247.550781 L 89.28125 247.550781 C 90.289062 247.550781 91.285156 247.207031 92.074219 246.578125 C 92.867188 245.949219 93.429688 245.0625 93.660156 244.078125 L 94.855469 238.957031 C 95.007812 238.300781 95.480469 237.769531 96.121094 237.542969 C 97.042969 237.214844 97.957031 236.835938 98.835938 236.417969 C 99.449219 236.125 100.164062 236.164062 100.738281 236.519531 L 105.203125 239.296875 C 106.0625 239.828125 107.085938 240.058594 108.089844 239.945312 C 109.09375 239.828125 110.042969 239.371094 110.757812 238.65625 L 114.988281 234.425781 C 115.703125 233.710938 116.160156 232.761719 116.277344 231.757812 C 116.390625 230.753906 116.160156 229.730469 115.628906 228.871094 L 114.058594 226.347656 L 132.207031 226.347656 C 132.652344 227.144531 133.503906 227.6875 134.484375 227.6875 C 135.917969 227.6875 137.082031 226.523438 137.082031 225.085938 C 137.082031 223.652344 135.917969 222.488281 134.484375 222.488281 C 133.503906 222.488281 132.652344 223.027344 132.207031 223.828125 L 111.742188 223.828125 C 111.046875 223.828125 110.484375 224.390625 110.484375 225.085938 C 110.484375 225.449219 110.636719 225.777344 110.882812 226.007812 L 113.488281 230.199219 C 113.976562 230.984375 113.863281 231.988281 113.207031 232.644531 L 108.976562 236.875 C 108.324219 237.53125 107.316406 237.644531 106.53125 237.15625 L 102.066406 234.382812 C 100.761719 233.570312 99.148438 233.480469 97.753906 234.140625 C 96.949219 234.523438 96.117188 234.871094 95.277344 235.167969 C 93.824219 235.6875 92.75 236.890625 92.402344 238.386719 L 91.207031 243.503906 C 90.996094 244.40625 90.203125 245.035156 89.28125 245.035156 L 83.292969 245.035156 C 82.371094 245.035156 81.578125 244.40625 81.367188 243.503906 L 80.171875 238.386719 C 79.824219 236.890625 78.75 235.6875 77.300781 235.167969 C 76.457031 234.871094 75.625 234.523438 74.820312 234.140625 C 73.425781 233.480469 71.816406 233.570312 70.507812 234.382812 L 66.042969 237.15625 C 65.257812 237.644531 64.253906 237.53125 63.597656 236.875 L 59.367188 232.644531 C 58.714844 231.988281 58.597656 230.984375 59.085938 230.199219 L 61.863281 225.734375 C 62.671875 224.425781 62.761719 222.816406 62.101562 221.421875 C 61.71875 220.617188 61.371094 219.785156 61.074219 218.941406 C 60.554688 217.492188 59.355469 216.417969 57.855469 216.070312 L 52.738281 214.875 C 51.835938 214.664062 51.207031 213.871094 51.207031 212.949219 L 51.207031 211.214844 L 51.609375 211.214844 L 51.21875 209.648438 C 51.210938 209.625 51.207031 209.601562 51.207031 209.574219 L 51.207031 206.710938 C 51.207031 205.945312 51.46875 205.195312 51.945312 204.59375 C 52.421875 203.996094 53.09375 203.570312 53.839844 203.394531 L 58.738281 202.253906 C 59.667969 202.035156 60.414062 201.367188 60.734375 200.464844 C 61.039062 199.613281 61.390625 198.765625 61.777344 197.953125 C 62.191406 197.085938 62.136719 196.082031 61.628906 195.273438 L 58.972656 190.996094 C 58.570312 190.347656 58.394531 189.570312 58.484375 188.8125 C 58.570312 188.050781 58.917969 187.335938 59.457031 186.792969 L 63.507812 182.746094 C 64.050781 182.203125 64.765625 181.859375 65.523438 181.769531 C 66.285156 181.683594 67.0625 181.855469 67.710938 182.261719 L 71.984375 184.917969 C 72.796875 185.421875 73.796875 185.476562 74.664062 185.066406 C 75.480469 184.675781 76.328125 184.328125 77.179688 184.023438 C 78.082031 183.699219 78.75 182.953125 78.964844 182.023438 L 80.109375 177.125 C 80.28125 176.378906 80.707031 175.707031 81.308594 175.234375 C 81.90625 174.757812 82.660156 174.496094 83.421875 174.496094 L 89.152344 174.496094 C 89.917969 174.496094 90.667969 174.757812 91.265625 175.234375 C 91.867188 175.707031 92.292969 176.378906 92.464844 177.125 L 93.609375 182.023438 C 93.824219 182.941406 94.476562 183.679688 95.359375 184.007812 C 95.503906 184.066406 95.65625 184.097656 95.820312 184.097656 L 133.734375 184.097656 C 134.179688 184.894531 135.03125 185.4375 136.007812 185.4375 Z M 68.191406 210.519531 C 68.191406 220.5 76.308594 228.617188 86.289062 228.617188 C 96.265625 228.617188 104.386719 220.5 104.386719 210.519531 C 104.386719 209.824219 104.949219 209.261719 105.644531 209.261719 L 128.230469 209.261719 C 128.675781 208.464844 129.527344 207.921875 130.507812 207.921875 C 131.941406 207.921875 133.105469 209.085938 133.105469 210.519531 C 133.105469 211.957031 131.941406 213.121094 130.507812 213.121094 C 129.527344 213.121094 128.675781 212.578125 128.230469 211.78125 L 106.867188 211.78125 C 106.726562 214.117188 106.195312 216.390625 105.28125 218.546875 C 104.246094 221 102.757812 223.207031 100.863281 225.097656 C 98.972656 226.992188 96.765625 228.476562 94.3125 229.515625 C 91.769531 230.589844 89.070312 231.136719 86.289062 231.136719 C 83.503906 231.136719 80.804688 230.589844 78.261719 229.515625 C 75.808594 228.476562 73.601562 226.992188 71.710938 225.097656 C 69.816406 223.207031 68.332031 221 67.292969 218.546875 C 66.21875 216.003906 65.671875 213.304688 65.671875 210.519531 C 65.671875 207.738281 66.21875 205.039062 67.292969 202.496094 C 68.332031 200.039062 69.816406 197.835938 71.710938 195.945312 C 73.601562 194.050781 75.808594 192.5625 78.261719 191.523438 C 80.804688 190.449219 83.503906 189.90625 86.289062 189.90625 C 89.113281 189.90625 91.851562 190.464844 94.425781 191.574219 C 96.710938 192.558594 98.777344 193.929688 100.570312 195.652344 L 120.496094 195.652344 C 120.941406 194.855469 121.792969 194.3125 122.769531 194.3125 C 124.207031 194.3125 125.371094 195.476562 125.371094 196.914062 C 125.371094 198.347656 124.207031 199.511719 122.769531 199.511719 C 121.792969 199.511719 120.941406 198.96875 120.496094 198.171875 L 100.03125 198.171875 C 99.613281 198.171875 99.242188 197.96875 99.011719 197.652344 C 95.601562 194.277344 91.097656 192.421875 86.289062 192.421875 C 76.308594 192.421875 68.191406 200.542969 68.191406 210.519531 " fill-opacity="1" fill-rule="nonzero"/></g><path fill="#bb0d67" d="M 212.984375 250.804688 C 212.984375 246.160156 209.207031 242.382812 204.5625 242.382812 C 199.917969 242.382812 196.140625 246.160156 196.140625 250.804688 C 196.140625 255.449219 199.917969 259.226562 204.5625 259.226562 C 209.207031 259.226562 212.984375 255.449219 212.984375 250.804688 Z M 197.367188 250.804688 C 197.367188 246.839844 200.59375 243.609375 204.5625 243.609375 C 208.53125 243.609375 211.757812 246.839844 211.757812 250.804688 C 211.757812 254.773438 208.53125 258 204.5625 258 C 200.59375 258 197.367188 254.773438 197.367188 250.804688 Z M 197.367188 250.804688 " fill-opacity="1" fill-rule="nonzero"/><path fill="#bb0d67" d="M 206.710938 256.25 C 206.808594 256.265625 206.910156 256.273438 207.007812 256.273438 C 207.308594 256.273438 207.601562 256.199219 207.867188 256.054688 C 209.875 254.984375 210.925781 253.167969 210.90625 250.796875 C 210.894531 249.890625 210.242188 249.132812 209.371094 249 C 209.265625 248.980469 209.164062 248.972656 209.046875 248.972656 C 208.03125 248.980469 207.214844 249.8125 207.222656 250.828125 C 207.234375 251.808594 206.910156 252.398438 206.140625 252.808594 C 205.707031 253.039062 205.386719 253.425781 205.246094 253.894531 C 205.101562 254.367188 205.148438 254.867188 205.378906 255.292969 C 205.644531 255.808594 206.128906 256.15625 206.710938 256.25 Z M 206.710938 256.25 " fill-opacity="1" fill-rule="nonzero"/><g clip-path="url(#671baed2d8)"><path fill="#bb0d67" d="M 215.460938 264.4375 L 215.460938 219.554688 C 215.460938 219.214844 215.1875 218.941406 214.847656 218.941406 L 186.871094 218.941406 C 186.859375 218.941406 186.84375 218.949219 186.832031 218.949219 C 186.777344 218.953125 186.726562 218.960938 186.671875 218.980469 C 186.652344 218.988281 186.628906 218.996094 186.609375 219.003906 C 186.554688 219.03125 186.503906 219.0625 186.460938 219.105469 C 186.453125 219.113281 186.445312 219.117188 186.4375 219.125 C 186.433594 219.125 186.433594 219.125 186.429688 219.128906 L 179.574219 226.269531 C 179.523438 226.320312 179.488281 226.375 179.460938 226.4375 C 179.453125 226.457031 179.449219 226.472656 179.441406 226.488281 C 179.425781 226.542969 179.414062 226.597656 179.410156 226.65625 C 179.40625 226.667969 179.402344 226.679688 179.402344 226.691406 L 179.402344 273.316406 C 179.402344 273.65625 179.675781 273.929688 180.015625 273.929688 L 214.847656 273.929688 C 215.1875 273.929688 215.460938 273.65625 215.460938 273.316406 L 215.460938 272.074219 L 215.691406 272.441406 C 216.109375 273.101562 216.808594 273.46875 217.511719 273.46875 C 217.867188 273.46875 218.222656 273.375 218.542969 273.171875 C 219.117188 272.8125 219.460938 272.171875 219.460938 271.464844 C 219.460938 271.050781 219.34375 270.644531 219.121094 270.292969 Z M 197.894531 257.820312 C 197.304688 257.261719 196.789062 256.625 196.355469 255.933594 C 195.753906 254.976562 195.335938 253.949219 195.109375 252.875 C 194.746094 251.234375 194.820312 249.527344 195.320312 247.933594 C 195.945312 245.929688 197.164062 244.21875 198.855469 242.988281 L 198.902344 242.957031 C 199.074219 242.835938 199.25 242.714844 199.433594 242.601562 C 203.953125 239.773438 209.933594 241.152344 212.765625 245.675781 C 213.726562 247.21875 214.234375 248.988281 214.234375 250.796875 C 214.234375 253.6875 212.96875 256.394531 210.761719 258.230469 C 210.429688 258.511719 210.066406 258.769531 209.691406 259.003906 C 209.289062 259.253906 208.894531 259.46875 208.511719 259.636719 C 204.972656 261.226562 200.707031 260.492188 197.894531 257.820312 Z M 210.339844 260.046875 C 210.566406 259.90625 210.785156 259.757812 210.996094 259.601562 L 213.457031 263.535156 L 212.101562 264.382812 L 209.644531 260.449219 C 209.875 260.324219 210.105469 260.191406 210.339844 260.046875 Z M 214.234375 262.46875 L 211.945312 258.800781 C 212.886719 257.9375 213.660156 256.921875 214.234375 255.808594 Z M 186.324219 221.011719 L 186.566406 226.417969 L 181.386719 226.148438 Z M 180.628906 272.703125 L 180.628906 227.339844 L 187.179688 227.679688 C 187.1875 227.679688 187.199219 227.679688 187.210938 227.679688 C 187.371094 227.679688 187.527344 227.617188 187.640625 227.503906 C 187.765625 227.378906 187.832031 227.210938 187.824219 227.039062 L 187.515625 220.167969 L 214.234375 220.167969 L 214.234375 245.789062 C 214.101562 245.53125 213.960938 245.273438 213.804688 245.027344 C 210.617188 239.929688 203.878906 238.375 198.789062 241.5625 C 198.625 241.660156 198.46875 241.769531 198.316406 241.875 L 185.527344 241.875 C 185.191406 241.875 184.914062 242.148438 184.914062 242.488281 C 184.914062 242.828125 185.191406 243.101562 185.527344 243.101562 L 196.84375 243.101562 C 195.707031 244.234375 194.847656 245.605469 194.304688 247.136719 L 185.527344 247.136719 C 185.191406 247.136719 184.914062 247.414062 184.914062 247.75 C 184.914062 248.089844 185.191406 248.363281 185.527344 248.363281 L 193.9375 248.363281 C 193.632812 249.683594 193.574219 251.050781 193.773438 252.394531 L 185.527344 252.394531 C 185.191406 252.394531 184.914062 252.667969 184.914062 253.007812 C 184.914062 253.347656 185.191406 253.621094 185.527344 253.621094 L 194.035156 253.621094 C 194.308594 254.65625 194.730469 255.652344 195.3125 256.585938 C 195.546875 256.957031 195.800781 257.3125 196.074219 257.652344 L 185.527344 257.652344 C 185.191406 257.652344 184.914062 257.925781 184.914062 258.265625 C 184.914062 258.601562 185.191406 258.878906 185.527344 258.878906 L 197.246094 258.878906 C 199.292969 260.734375 201.894531 261.71875 204.546875 261.71875 C 205.882812 261.71875 207.222656 261.453125 208.511719 260.949219 L 214.234375 270.105469 L 214.234375 272.703125 Z M 180.628906 272.703125 " fill-opacity="1" fill-rule="nonzero"/></g><path fill="#bb0d67" d="M 200.28125 226.195312 L 211.910156 226.195312 C 212.25 226.195312 212.523438 225.921875 212.523438 225.582031 C 212.523438 225.246094 212.25 224.96875 211.910156 224.96875 L 200.28125 224.96875 C 199.941406 224.96875 199.667969 225.246094 199.667969 225.582031 C 199.667969 225.921875 199.941406 226.195312 200.28125 226.195312 Z M 200.28125 226.195312 " fill-opacity="1" fill-rule="nonzero"/><path fill="#bb0d67" d="M 185.527344 232.585938 L 210.070312 232.585938 C 210.410156 232.585938 210.683594 232.3125 210.683594 231.972656 C 210.683594 231.636719 210.410156 231.359375 210.070312 231.359375 L 185.527344 231.359375 C 185.191406 231.359375 184.914062 231.636719 184.914062 231.972656 C 184.914062 232.3125 185.191406 232.585938 185.527344 232.585938 Z M 185.527344 232.585938 " fill-opacity="1" fill-rule="nonzero"/><path fill="#bb0d67" d="M 185.527344 237.84375 L 210.070312 237.84375 C 210.410156 237.84375 210.683594 237.570312 210.683594 237.230469 C 210.683594 236.894531 210.410156 236.617188 210.070312 236.617188 L 185.527344 236.617188 C 185.191406 236.617188 184.914062 236.894531 184.914062 237.230469 C 184.914062 237.570312 185.191406 237.84375 185.527344 237.84375 Z M 185.527344 237.84375 " fill-opacity="1" fill-rule="nonzero"/><path fill="#bb0d67" d="M 239.691406 249.300781 L 224.632812 249.300781 C 222.699219 249.300781 221.128906 250.875 221.128906 252.804688 L 221.128906 282.234375 C 221.128906 284.167969 222.699219 285.742188 224.632812 285.742188 L 239.691406 285.742188 C 241.621094 285.742188 243.191406 284.167969 243.191406 282.234375 L 243.191406 252.804688 C 243.191406 250.875 241.621094 249.300781 239.691406 249.300781 Z M 241.964844 282.234375 C 241.964844 283.492188 240.945312 284.515625 239.691406 284.515625 L 224.632812 284.515625 C 223.375 284.515625 222.355469 283.492188 222.355469 282.234375 L 222.355469 252.804688 C 222.355469 251.550781 223.378906 250.527344 224.632812 250.527344 L 239.691406 250.527344 C 240.945312 250.527344 241.964844 251.550781 241.964844 252.804688 Z M 241.964844 282.234375 " fill-opacity="1" fill-rule="nonzero"/><path fill="#bb0d67" d="M 239.511719 253.09375 L 224.808594 253.09375 C 224.472656 253.09375 224.195312 253.367188 224.195312 253.707031 L 224.195312 258.25 C 224.195312 258.589844 224.472656 258.867188 224.808594 258.867188 L 239.511719 258.867188 C 239.851562 258.867188 240.125 258.589844 240.125 258.25 L 240.125 253.707031 C 240.125 253.367188 239.851562 253.09375 239.511719 253.09375 Z M 238.898438 257.636719 L 225.421875 257.636719 L 225.421875 254.320312 L 238.898438 254.320312 Z M 238.898438 257.636719 " fill-opacity="1" fill-rule="nonzero"/><path fill="#bb0d67" d="M 232.15625 261.375 C 230.921875 261.375 229.914062 262.382812 229.914062 263.617188 C 229.914062 264.855469 230.921875 265.863281 232.15625 265.863281 C 233.398438 265.863281 234.410156 264.855469 234.410156 263.617188 C 234.410156 262.382812 233.398438 261.375 232.15625 261.375 Z M 232.15625 264.636719 C 231.597656 264.636719 231.140625 264.179688 231.140625 263.617188 C 231.140625 263.054688 231.597656 262.601562 232.15625 262.601562 C 232.722656 262.601562 233.183594 263.058594 233.183594 263.617188 C 233.183594 264.179688 232.722656 264.636719 232.15625 264.636719 Z M 232.15625 264.636719 " fill-opacity="1" fill-rule="nonzero"/><path fill="#bb0d67" d="M 232.15625 267.035156 C 230.921875 267.035156 229.914062 268.042969 229.914062 269.28125 C 229.914062 270.519531 230.921875 271.523438 232.15625 271.523438 C 233.398438 271.523438 234.410156 270.519531 234.410156 269.28125 C 234.410156 268.042969 233.398438 267.035156 232.15625 267.035156 Z M 232.15625 270.296875 C 231.597656 270.296875 231.140625 269.839844 231.140625 269.28125 C 231.140625 268.71875 231.597656 268.261719 232.15625 268.261719 C 232.722656 268.261719 233.183594 268.71875 233.183594 269.28125 C 233.183594 269.839844 232.722656 270.296875 232.15625 270.296875 Z M 232.15625 270.296875 " fill-opacity="1" fill-rule="nonzero"/><path fill="#bb0d67" d="M 232.15625 272.695312 C 230.921875 272.695312 229.914062 273.707031 229.914062 274.949219 C 229.914062 276.183594 230.921875 277.191406 232.15625 277.191406 C 233.398438 277.191406 234.410156 276.183594 234.410156 274.949219 C 234.410156 273.707031 233.398438 272.695312 232.15625 272.695312 Z M 232.15625 275.964844 C 231.597656 275.964844 231.140625 275.507812 231.140625 274.949219 C 231.140625 274.382812 231.597656 273.921875 232.15625 273.921875 C 232.722656 273.921875 233.183594 274.382812 233.183594 274.949219 C 233.183594 275.507812 232.722656 275.964844 232.15625 275.964844 Z M 232.15625 275.964844 " fill-opacity="1" fill-rule="nonzero"/><path fill="#bb0d67" d="M 232.15625 278.363281 C 230.921875 278.363281 229.914062 279.371094 229.914062 280.609375 C 229.914062 281.847656 230.921875 282.855469 232.15625 282.855469 C 233.398438 282.855469 234.410156 281.847656 234.410156 280.609375 C 234.410156 279.371094 233.398438 278.363281 232.15625 278.363281 Z M 232.15625 281.628906 C 231.597656 281.628906 231.140625 281.171875 231.140625 280.609375 C 231.140625 280.046875 231.597656 279.589844 232.15625 279.589844 C 232.722656 279.589844 233.183594 280.046875 233.183594 280.609375 C 233.183594 281.171875 232.722656 281.628906 232.15625 281.628906 Z M 232.15625 281.628906 " fill-opacity="1" fill-rule="nonzero"/><path fill="#bb0d67" d="M 226.441406 261.375 C 225.203125 261.375 224.195312 262.382812 224.195312 263.617188 C 224.195312 264.855469 225.203125 265.863281 226.441406 265.863281 C 227.679688 265.863281 228.6875 264.855469 228.6875 263.617188 C 228.6875 262.382812 227.679688 261.375 226.441406 261.375 Z M 226.441406 264.636719 C 225.878906 264.636719 225.421875 264.179688 225.421875 263.617188 C 225.421875 263.054688 225.878906 262.601562 226.441406 262.601562 C 227.003906 262.601562 227.460938 263.058594 227.460938 263.617188 C 227.460938 264.179688 227.003906 264.636719 226.441406 264.636719 Z M 226.441406 264.636719 " fill-opacity="1" fill-rule="nonzero"/><path fill="#bb0d67" d="M 226.441406 267.035156 C 225.203125 267.035156 224.195312 268.042969 224.195312 269.28125 C 224.195312 270.519531 225.203125 271.523438 226.441406 271.523438 C 227.679688 271.523438 228.6875 270.519531 228.6875 269.28125 C 228.6875 268.042969 227.679688 267.035156 226.441406 267.035156 Z M 226.441406 270.296875 C 225.878906 270.296875 225.421875 269.839844 225.421875 269.28125 C 225.421875 268.71875 225.878906 268.261719 226.441406 268.261719 C 227.003906 268.261719 227.460938 268.71875 227.460938 269.28125 C 227.460938 269.839844 227.003906 270.296875 226.441406 270.296875 Z M 226.441406 270.296875 " fill-opacity="1" fill-rule="nonzero"/><path fill="#bb0d67" d="M 226.441406 272.695312 C 225.203125 272.695312 224.195312 273.707031 224.195312 274.949219 C 224.195312 276.183594 225.203125 277.191406 226.441406 277.191406 C 227.679688 277.191406 228.6875 276.183594 228.6875 274.949219 C 228.6875 273.707031 227.679688 272.695312 226.441406 272.695312 Z M 226.441406 275.964844 C 225.878906 275.964844 225.421875 275.507812 225.421875 274.949219 C 225.421875 274.382812 225.878906 273.921875 226.441406 273.921875 C 227.003906 273.921875 227.460938 274.382812 227.460938 274.949219 C 227.460938 275.507812 227.003906 275.964844 226.441406 275.964844 Z M 226.441406 275.964844 " fill-opacity="1" fill-rule="nonzero"/><path fill="#bb0d67" d="M 226.441406 278.363281 C 225.203125 278.363281 224.195312 279.371094 224.195312 280.609375 C 224.195312 281.847656 225.203125 282.855469 226.441406 282.855469 C 227.679688 282.855469 228.6875 281.847656 228.6875 280.609375 C 228.6875 279.371094 227.679688 278.363281 226.441406 278.363281 Z M 226.441406 281.628906 C 225.878906 281.628906 225.421875 281.171875 225.421875 280.609375 C 225.421875 280.046875 225.878906 279.589844 226.441406 279.589844 C 227.003906 279.589844 227.460938 280.046875 227.460938 280.609375 C 227.460938 281.171875 227.003906 281.628906 226.441406 281.628906 Z M 226.441406 281.628906 " fill-opacity="1" fill-rule="nonzero"/><path fill="#bb0d67" d="M 237.878906 261.375 C 236.644531 261.375 235.636719 262.382812 235.636719 263.617188 C 235.636719 264.855469 236.644531 265.863281 237.878906 265.863281 C 239.117188 265.863281 240.125 264.855469 240.125 263.617188 C 240.125 262.382812 239.117188 261.375 237.878906 261.375 Z M 237.878906 264.636719 C 237.320312 264.636719 236.863281 264.179688 236.863281 263.617188 C 236.863281 263.054688 237.320312 262.601562 237.878906 262.601562 C 238.441406 262.601562 238.898438 263.058594 238.898438 263.617188 C 238.898438 264.179688 238.441406 264.636719 237.878906 264.636719 Z M 237.878906 264.636719 " fill-opacity="1" fill-rule="nonzero"/><path fill="#bb0d67" d="M 237.878906 267.035156 C 236.644531 267.035156 235.636719 268.042969 235.636719 269.28125 C 235.636719 270.519531 236.644531 271.523438 237.878906 271.523438 C 239.117188 271.523438 240.125 270.519531 240.125 269.28125 C 240.125 268.042969 239.117188 267.035156 237.878906 267.035156 Z M 237.878906 270.296875 C 237.320312 270.296875 236.863281 269.839844 236.863281 269.28125 C 236.863281 268.71875 237.320312 268.261719 237.878906 268.261719 C 238.441406 268.261719 238.898438 268.71875 238.898438 269.28125 C 238.898438 269.839844 238.441406 270.296875 237.878906 270.296875 Z M 237.878906 270.296875 " fill-opacity="1" fill-rule="nonzero"/><path fill="#bb0d67" d="M 237.878906 272.695312 C 236.644531 272.695312 235.636719 273.707031 235.636719 274.949219 C 235.636719 276.183594 236.644531 277.191406 237.878906 277.191406 C 239.117188 277.191406 240.125 276.183594 240.125 274.949219 C 240.125 273.707031 239.117188 272.695312 237.878906 272.695312 Z M 237.878906 275.964844 C 237.320312 275.964844 236.863281 275.507812 236.863281 274.949219 C 236.863281 274.382812 237.320312 273.921875 237.878906 273.921875 C 238.441406 273.921875 238.898438 274.382812 238.898438 274.949219 C 238.898438 275.507812 238.441406 275.964844 237.878906 275.964844 Z M 237.878906 275.964844 " fill-opacity="1" fill-rule="nonzero"/><path fill="#bb0d67" d="M 237.878906 278.363281 C 236.644531 278.363281 235.636719 279.371094 235.636719 280.609375 C 235.636719 281.847656 236.644531 282.855469 237.878906 282.855469 C 239.117188 282.855469 240.125 281.847656 240.125 280.609375 C 240.125 279.371094 239.117188 278.363281 237.878906 278.363281 Z M 237.878906 281.628906 C 237.320312 281.628906 236.863281 281.171875 236.863281 280.609375 C 236.863281 280.046875 237.320312 279.589844 237.878906 279.589844 C 238.441406 279.589844 238.898438 280.046875 238.898438 280.609375 C 238.898438 281.171875 238.441406 281.628906 237.878906 281.628906 Z M 237.878906 281.628906 " fill-opacity="1" fill-rule="nonzero"/><g clip-path="url(#7dbdb1c302)"><path fill="#bb0d67" d="M 253.609375 271.113281 C 253.269531 271.113281 252.992188 271.386719 252.992188 271.726562 L 252.992188 280.253906 C 252.992188 280.820312 252.578125 281.289062 252.039062 281.378906 L 252.039062 253.027344 C 252.039062 252.988281 252.023438 252.957031 252.015625 252.921875 C 252.007812 252.882812 252.011719 252.847656 252 252.8125 L 250.894531 249.867188 C 250.695312 249.335938 250.277344 248.941406 249.769531 248.765625 L 249.769531 246.75 C 249.769531 246.414062 249.492188 246.136719 249.15625 246.136719 C 248.816406 246.136719 248.542969 246.414062 248.542969 246.75 L 248.542969 248.765625 C 248.03125 248.941406 247.613281 249.332031 247.414062 249.863281 L 246.304688 252.808594 C 246.292969 252.84375 246.292969 252.878906 246.289062 252.917969 C 246.28125 252.953125 246.265625 252.988281 246.265625 253.027344 L 246.265625 282.015625 C 246.265625 282.351562 246.539062 282.628906 246.878906 282.628906 L 247.246094 282.628906 L 247.246094 284.253906 C 247.246094 284.769531 247.449219 285.25 247.800781 285.59375 C 248.15625 285.960938 248.636719 286.160156 249.15625 286.160156 C 250.207031 286.160156 251.0625 285.304688 251.0625 284.253906 L 251.0625 282.628906 L 251.839844 282.628906 C 253.152344 282.628906 254.222656 281.5625 254.222656 280.253906 L 254.222656 271.726562 C 254.222656 271.386719 253.945312 271.113281 253.609375 271.113281 Z M 250.808594 256.085938 L 250.808594 265.898438 L 247.492188 265.898438 L 247.492188 256.085938 Z M 250.808594 267.125 L 250.808594 279.105469 L 247.492188 279.105469 L 247.492188 267.125 Z M 248.5625 250.296875 C 248.707031 249.914062 249.050781 249.886719 249.15625 249.886719 C 249.257812 249.886719 249.601562 249.914062 249.746094 250.296875 L 250.539062 252.410156 L 247.765625 252.410156 Z M 249.835938 284.253906 C 249.835938 284.628906 249.53125 284.933594 249.15625 284.933594 C 248.972656 284.933594 248.800781 284.863281 248.667969 284.726562 C 248.542969 284.605469 248.472656 284.4375 248.472656 284.253906 L 248.472656 282.625 L 249.835938 282.625 Z M 249.835938 284.253906 " fill-opacity="1" fill-rule="nonzero"/></g><path fill="#bb0d67" d="M 222.96875 228.578125 C 222.628906 228.578125 222.355469 228.851562 222.355469 229.191406 L 222.355469 244.84375 C 222.355469 245.179688 222.628906 245.457031 222.96875 245.457031 L 227.140625 245.457031 C 227.480469 245.457031 227.753906 245.179688 227.753906 244.84375 L 227.753906 229.191406 C 227.753906 228.851562 227.480469 228.578125 227.140625 228.578125 Z M 226.527344 244.230469 L 223.582031 244.230469 L 223.582031 229.804688 L 226.527344 229.804688 Z M 226.527344 244.230469 " fill-opacity="1" fill-rule="nonzero"/><path fill="#bb0d67" d="M 230.199219 222.628906 C 229.863281 222.628906 229.585938 222.902344 229.585938 223.242188 L 229.585938 244.84375 C 229.585938 245.183594 229.863281 245.457031 230.199219 245.457031 L 234.371094 245.457031 C 234.710938 245.457031 234.984375 245.183594 234.984375 244.84375 L 234.984375 223.242188 C 234.984375 222.902344 234.710938 222.628906 234.371094 222.628906 Z M 233.757812 244.230469 L 230.816406 244.230469 L 230.816406 223.855469 L 233.757812 223.855469 Z M 233.757812 244.230469 " fill-opacity="1" fill-rule="nonzero"/><path fill="#bb0d67" d="M 237.4375 232.355469 C 237.101562 232.355469 236.824219 232.628906 236.824219 232.96875 L 236.824219 244.84375 C 236.824219 245.179688 237.101562 245.457031 237.4375 245.457031 L 241.605469 245.457031 C 241.941406 245.457031 242.21875 245.179688 242.21875 244.84375 L 242.21875 232.96875 C 242.21875 232.628906 241.941406 232.355469 241.605469 232.355469 Z M 240.992188 244.230469 L 238.050781 244.230469 L 238.050781 233.582031 L 240.992188 233.582031 Z M 240.992188 244.230469 " fill-opacity="1" fill-rule="nonzero"/><path fill="#bb0d67" d="M 249.453125 244.84375 L 249.453125 218.675781 C 249.453125 218.339844 249.179688 218.0625 248.839844 218.0625 L 244.671875 218.0625 C 244.332031 218.0625 244.058594 218.339844 244.058594 218.675781 L 244.058594 244.84375 C 244.058594 245.183594 244.332031 245.457031 244.671875 245.457031 L 248.839844 245.457031 C 249.179688 245.457031 249.453125 245.183594 249.453125 244.84375 Z M 248.226562 244.230469 L 245.285156 244.230469 L 245.285156 219.289062 L 248.226562 219.289062 Z M 248.226562 244.230469 " fill-opacity="1" fill-rule="nonzero"/><g clip-path="url(#ca9c3cacef)"><path fill="#bb0d67" d="M 256.074219 214.289062 L 251.902344 214.289062 C 251.5625 214.289062 251.289062 214.566406 251.289062 214.902344 L 251.289062 244.84375 C 251.289062 245.179688 251.5625 245.457031 251.902344 245.457031 L 256.074219 245.457031 C 256.410156 245.457031 256.6875 245.179688 256.6875 244.84375 L 256.6875 214.902344 C 256.6875 214.566406 256.410156 214.289062 256.074219 214.289062 Z M 255.460938 244.230469 L 252.515625 244.230469 L 252.515625 215.515625 L 255.460938 215.515625 Z M 255.460938 244.230469 " fill-opacity="1" fill-rule="nonzero"/></g><g clip-path="url(#47cde75c42)"><path fill="#bb0d67" d="M 235.367188 215.882812 C 235.6875 215.976562 235.949219 216.195312 236.097656 216.492188 C 236.511719 217.316406 237.34375 217.832031 238.273438 217.832031 C 238.675781 217.832031 239.050781 217.738281 239.398438 217.558594 L 248.777344 212.683594 L 249.675781 214.289062 C 249.777344 214.476562 249.972656 214.59375 250.183594 214.605469 C 250.191406 214.605469 250.203125 214.605469 250.210938 214.605469 C 250.414062 214.605469 250.605469 214.503906 250.71875 214.335938 L 253.730469 209.863281 C 253.859375 209.671875 253.871094 209.421875 253.757812 209.222656 C 253.644531 209.019531 253.425781 208.902344 253.199219 208.90625 L 247.8125 209.117188 C 247.597656 209.125 247.40625 209.242188 247.300781 209.429688 C 247.199219 209.613281 247.195312 209.839844 247.300781 210.027344 L 248.183594 211.609375 L 238.832031 216.472656 C 238.664062 216.558594 238.476562 216.605469 238.273438 216.605469 C 237.8125 216.605469 237.402344 216.351562 237.195312 215.941406 C 236.890625 215.339844 236.367188 214.902344 235.722656 214.707031 C 235.082031 214.515625 234.410156 214.589844 233.828125 214.917969 L 218.960938 223.265625 C 218.664062 223.429688 218.558594 223.804688 218.726562 224.101562 C 218.839844 224.300781 219.046875 224.414062 219.261719 224.414062 C 219.363281 224.414062 219.464844 224.386719 219.5625 224.335938 L 234.429688 215.984375 C 234.714844 215.824219 235.046875 215.785156 235.367188 215.882812 Z M 235.367188 215.882812 " fill-opacity="1" fill-rule="nonzero"/></g><g clip-path="url(#998e215756)"><g clip-path="url(#3dfe782b85)"><path fill="#ffffff" d="M 138.621094 61.621094 L 277.273438 61.621094 L 277.273438 164.210938 L 138.621094 164.210938 Z M 138.621094 61.621094 " fill-opacity="1" fill-rule="nonzero"/></g></g><g clip-path="url(#e34c5847d7)"><path fill="#bb0d67" d="M 184.332031 48.46875 C 287.464844 48.46875 371.074219 132.082031 371.074219 235.21875 C 371.074219 338.351562 287.464844 421.964844 184.332031 421.964844 C 81.195312 421.964844 -2.414062 338.351562 -2.414062 235.21875 C -2.414062 132.082031 81.195312 48.46875 184.332031 48.46875 Z M 184.332031 41.492188 C 77.335938 41.492188 -9.394531 128.222656 -9.394531 235.21875 C -9.394531 342.210938 77.335938 428.945312 184.332031 428.945312 C 291.324219 428.945312 378.058594 342.210938 378.058594 235.21875 C 378.058594 128.222656 291.324219 41.492188 184.332031 41.492188 Z M 277.183594 149.03125 L 277.183594 230.050781 L 254.347656 215.300781 L 211.171875 242.113281 L 203.90625 246.628906 L 199.65625 249.265625 L 199.65625 125.03125 L 150.589844 155.4375 L 150.589844 208.890625 L 139.074219 201.09375 L 139.074219 149.03125 L 211.171875 104.347656 Z M 23.09375 235.21875 C 23.09375 146.167969 95.28125 73.984375 184.332031 73.984375 C 273.382812 73.984375 345.566406 146.167969 345.566406 235.21875 C 345.566406 276.363281 330.128906 313.894531 304.761719 342.386719 L 304.761719 256.519531 L 254.53125 222.515625 L 199.65625 256.519531 L 199.65625 395.710938 C 194.609375 396.1875 189.503906 396.453125 184.332031 396.453125 C 179.160156 396.453125 174.050781 396.1875 169.003906 395.710938 L 169.003906 229.160156 L 118.769531 195.15625 L 63.902344 229.160156 L 63.902344 342.386719 C 38.53125 313.894531 23.09375 276.363281 23.09375 235.21875 Z M 72.664062 234.039062 L 110.007812 210.898438 L 110.007812 378.289062 C 96.28125 371.144531 83.71875 362.085938 72.664062 351.460938 Z M 208.421875 261.398438 L 245.765625 238.257812 L 245.765625 384.308594 C 233.953125 389.179688 221.445312 392.703125 208.421875 394.65625 Z M 6.933594 235.21875 C 6.933594 333.191406 86.355469 412.617188 184.332031 412.617188 C 282.304688 412.617188 361.730469 333.191406 361.730469 235.21875 C 361.730469 137.242188 282.304688 57.820312 184.332031 57.820312 C 86.355469 57.820312 6.933594 137.242188 6.933594 235.21875 " fill-opacity="1" fill-rule="nonzero"/></g><g clip-path="url(#67ffaffcba)"><path fill="#ffffff" d="M 187.496094 352.601562 C 96.28125 352.601562 22.390625 278.203125 22.390625 187.496094 C 22.390625 96.789062 96.28125 22.390625 187.496094 22.390625 C 278.710938 22.390625 352.601562 96.28125 352.601562 187.496094 C 352.601562 278.710938 278.203125 352.601562 187.496094 352.601562 Z M 187.496094 32.582031 C 101.886719 32.582031 32.582031 101.886719 32.582031 187.496094 C 32.582031 273.105469 101.886719 342.410156 187.496094 342.410156 C 273.105469 342.410156 342.410156 273.105469 342.410156 187.496094 C 342.410156 101.886719 272.597656 32.582031 187.496094 32.582031 Z M 187.496094 32.582031 " fill-opacity="1" fill-rule="nonzero"/></g><g clip-path="url(#44e54223fe)"><path fill="#ffffff" d="M 187.496094 373.871094 C 84.527344 373.871094 1.121094 289.886719 1.121094 187.496094 C 1.121094 85.105469 84.527344 1.121094 187.496094 1.121094 C 290.460938 1.121094 373.871094 84.527344 373.871094 187.496094 C 373.871094 290.460938 289.886719 373.871094 187.496094 373.871094 Z M 187.496094 12.625 C 90.855469 12.625 12.625 90.855469 12.625 187.496094 C 12.625 284.132812 90.855469 362.367188 187.496094 362.367188 C 284.132812 362.367188 362.367188 284.132812 362.367188 187.496094 C 362.367188 90.855469 283.558594 12.625 187.496094 12.625 Z M 187.496094 12.625 " fill-opacity="1" fill-rule="nonzero"/></g></svg>