<svg xmlns="http://www.w3.org/2000/svg" xmlns:xlink="http://www.w3.org/1999/xlink" width="500" zoomAndPan="magnify" viewBox="0 0 375 374.999991" height="500" preserveAspectRatio="xMidYMid meet" version="1.0"><defs><clipPath id="8853adb608"><path d="M 2.578125 0 L 321 0 L 321 176 L 2.578125 176 Z M 2.578125 0 " clip-rule="nonzero"/></clipPath></defs><g clip-path="url(#8853adb608)"><path fill="#bb0d67" d="M 127.371094 175.449219 L 127.371094 152.988281 C 127.371094 147.871094 131.617188 143.628906 136.730469 143.628906 L 186.652344 143.628906 C 191.765625 143.628906 196.011719 147.871094 196.011719 152.988281 L 196.011719 175.449219 L 292.101562 159.476562 C 308.699219 156.730469 320.804688 142.503906 320.804688 125.65625 L 320.804688 84.351562 C 320.804688 65.382812 305.457031 50.03125 286.488281 50.03125 L 245.929688 50.03125 L 245.929688 34.433594 C 245.929688 15.464844 230.578125 0.113281 211.609375 0.113281 L 111.773438 0.113281 C 92.804688 0.113281 77.453125 15.464844 77.453125 34.433594 L 77.453125 50.03125 L 36.894531 50.03125 C 17.925781 50.03125 2.578125 65.382812 2.578125 84.351562 L 2.578125 125.65625 C 2.578125 142.503906 14.683594 156.730469 31.28125 159.476562 Z M 96.171875 34.433594 C 96.171875 25.820312 103.164062 18.832031 111.773438 18.832031 L 211.609375 18.832031 C 220.21875 18.832031 227.207031 25.820312 227.207031 34.433594 L 227.207031 50.03125 L 96.171875 50.03125 Z M 96.171875 34.433594 " fill-opacity="1" fill-rule="nonzero"/></g><path fill="#bb0d67" d="M 291.601562 209.644531 L 308.324219 216.757812 L 308.324219 173.953125 C 304.207031 175.824219 299.839844 177.199219 295.222656 177.945312 L 195.761719 194.542969 C 193.765625 211.640625 179.289062 224.746094 161.691406 224.746094 C 144.09375 224.746094 129.617188 211.640625 127.621094 194.542969 C 108.527344 191.300781 77.828125 186.183594 28.160156 177.945312 C 23.542969 177.199219 19.175781 175.824219 15.058594 173.953125 L 15.058594 246.585938 C 15.058594 265.554688 30.40625 280.902344 49.375 280.902344 L 161.316406 280.902344 C 155.949219 267.675781 160.816406 250.578125 175.542969 244.214844 C 175.667969 244.214844 256.410156 209.644531 256.410156 209.644531 C 267.519531 204.902344 280.496094 204.902344 291.601562 209.644531 Z M 291.601562 209.644531 " fill-opacity="1" fill-rule="nonzero"/><path fill="#bb0d67" d="M 161.691406 206.027344 C 170.300781 206.027344 177.289062 199.039062 177.289062 190.425781 L 177.289062 162.347656 L 146.09375 162.347656 L 146.09375 190.425781 C 146.09375 199.039062 153.082031 206.027344 161.691406 206.027344 Z M 161.691406 206.027344 " fill-opacity="1" fill-rule="nonzero"/><path fill="#bb0d67" d="M 365.050781 261.464844 L 284.203125 226.816406 C 277.730469 224.039062 270.289062 224.039062 263.808594 226.816406 C 263.808594 226.816406 183.195312 261.363281 182.964844 261.464844 C 175.621094 264.613281 175.621094 275.527344 182.964844 278.671875 L 263.8125 313.320312 C 270.265625 316.09375 277.753906 316.085938 284.207031 313.320312 C 284.207031 313.320312 364.761719 278.796875 365.050781 278.671875 C 372.417969 275.515625 372.417969 264.621094 365.050781 261.464844 Z M 365.050781 261.464844 " fill-opacity="1" fill-rule="nonzero"/><path fill="#bb0d67" d="M 256.410156 330.570312 C 256.394531 330.566406 199.128906 305.988281 199.128906 305.988281 L 199.128906 339.804688 C 199.128906 343.050781 200.753906 345.921875 203.496094 347.667969 C 246.054688 374.875 301.960938 374.875 344.515625 347.667969 C 347.261719 345.921875 348.882812 343.050781 348.882812 339.804688 L 348.882812 305.988281 L 291.601562 330.570312 C 280.636719 335.296875 267.375 335.277344 256.410156 330.570312 Z M 256.410156 330.570312 " fill-opacity="1" fill-rule="nonzero"/></svg>