<svg xmlns="http://www.w3.org/2000/svg" xmlns:xlink="http://www.w3.org/1999/xlink" width="500" zoomAndPan="magnify" viewBox="0 0 375 374.999991" height="500" preserveAspectRatio="xMidYMid meet" version="1.0"><defs><clipPath id="143cd35f36"><path d="M 12.765625 271.015625 L 215.167969 271.015625 L 215.167969 375 L 12.765625 375 Z M 12.765625 271.015625 " clip-rule="nonzero"/></clipPath><clipPath id="7ef0a98d4c"><path d="M 328.273438 71.285156 L 369.75 71.285156 L 369.75 260 L 328.273438 260 Z M 328.273438 71.285156 " clip-rule="nonzero"/></clipPath></defs><path fill="#081e7c" d="M 25.117188 85.367188 C 28.984375 79.398438 33.179688 73.671875 37.707031 68.183594 C 37.871094 67.980469 37.992188 67.753906 38.070312 67.507812 C 38.144531 67.257812 38.171875 67.003906 38.144531 66.742188 C 38.121094 66.484375 38.046875 66.238281 37.925781 66.011719 C 37.804688 65.78125 37.640625 65.582031 37.441406 65.417969 C 37.238281 65.25 37.015625 65.128906 36.765625 65.054688 C 36.515625 64.976562 36.261719 64.953125 36.003906 64.976562 C 35.742188 65 35.5 65.074219 35.269531 65.195312 C 35.039062 65.320312 34.839844 65.480469 34.675781 65.683594 C 30.054688 71.289062 25.769531 77.136719 21.820312 83.230469 C 21.679688 83.449219 21.585938 83.683594 21.539062 83.941406 C 21.492188 84.199219 21.496094 84.453125 21.550781 84.707031 C 21.605469 84.960938 21.707031 85.195312 21.851562 85.410156 C 22 85.625 22.183594 85.804688 22.402344 85.945312 C 22.621094 86.085938 22.859375 86.183594 23.113281 86.230469 C 23.371094 86.277344 23.625 86.273438 23.878906 86.21875 C 24.136719 86.164062 24.371094 86.0625 24.585938 85.914062 C 24.800781 85.765625 24.976562 85.585938 25.117188 85.367188 Z M 52.171875 52.546875 C 57.296875 47.609375 62.679688 42.984375 68.328125 38.667969 C 68.535156 38.507812 68.707031 38.316406 68.835938 38.09375 C 68.96875 37.867188 69.050781 37.625 69.085938 37.367188 C 69.117188 37.109375 69.101562 36.855469 69.035156 36.601562 C 68.96875 36.351562 68.855469 36.121094 68.699219 35.914062 C 68.539062 35.707031 68.347656 35.539062 68.125 35.40625 C 67.898438 35.277344 67.65625 35.195312 67.398438 35.160156 C 67.140625 35.125 66.886719 35.140625 66.632812 35.207031 C 66.382812 35.273438 66.152344 35.386719 65.945312 35.546875 C 60.175781 39.953125 54.679688 44.675781 49.449219 49.71875 C 49.261719 49.898438 49.113281 50.109375 49.011719 50.347656 C 48.90625 50.585938 48.851562 50.835938 48.847656 51.097656 C 48.84375 51.355469 48.886719 51.609375 48.984375 51.851562 C 49.078125 52.09375 49.214844 52.308594 49.398438 52.496094 C 49.578125 52.683594 49.785156 52.828125 50.027344 52.933594 C 50.265625 53.039062 50.515625 53.09375 50.773438 53.097656 C 51.035156 53.101562 51.285156 53.058594 51.527344 52.960938 C 51.769531 52.867188 51.984375 52.730469 52.171875 52.546875 Z M 85.964844 26.726562 C 92.078125 23.082031 98.375 19.800781 104.855469 16.890625 C 105.09375 16.785156 105.300781 16.636719 105.480469 16.445312 C 105.660156 16.257812 105.792969 16.039062 105.886719 15.796875 C 105.980469 15.550781 106.019531 15.300781 106.011719 15.039062 C 106.007812 14.78125 105.949219 14.53125 105.84375 14.292969 C 105.734375 14.054688 105.585938 13.847656 105.398438 13.667969 C 105.207031 13.488281 104.992188 13.355469 104.75 13.261719 C 104.503906 13.167969 104.253906 13.125 103.992188 13.132812 C 103.730469 13.140625 103.484375 13.199219 103.246094 13.304688 C 96.625 16.28125 90.195312 19.628906 83.953125 23.351562 C 83.730469 23.484375 83.542969 23.65625 83.386719 23.863281 C 83.230469 24.074219 83.121094 24.304688 83.054688 24.558594 C 82.992188 24.808594 82.980469 25.066406 83.015625 25.324219 C 83.054688 25.582031 83.140625 25.820312 83.273438 26.042969 C 83.40625 26.269531 83.578125 26.457031 83.785156 26.613281 C 83.996094 26.769531 84.226562 26.878906 84.480469 26.941406 C 84.730469 27.007812 84.988281 27.019531 85.242188 26.984375 C 85.5 26.945312 85.742188 26.859375 85.964844 26.726562 Z M 124.75 9.300781 C 131.527344 7.15625 138.40625 5.410156 145.390625 4.0625 C 145.648438 4.011719 145.886719 3.914062 146.101562 3.773438 C 146.320312 3.628906 146.5 3.449219 146.648438 3.234375 C 146.792969 3.019531 146.890625 2.78125 146.945312 2.527344 C 146.996094 2.273438 147 2.015625 146.949219 1.761719 C 146.898438 1.503906 146.804688 1.269531 146.660156 1.050781 C 146.515625 0.832031 146.335938 0.652344 146.121094 0.503906 C 145.90625 0.359375 145.667969 0.261719 145.414062 0.207031 C 145.160156 0.15625 144.902344 0.152344 144.648438 0.203125 C 137.515625 1.582031 130.488281 3.363281 123.566406 5.554688 C 123.320312 5.632812 123.09375 5.753906 122.894531 5.921875 C 122.695312 6.089844 122.535156 6.289062 122.417969 6.519531 C 122.296875 6.753906 122.226562 6.996094 122.203125 7.257812 C 122.179688 7.515625 122.207031 7.769531 122.285156 8.019531 C 122.367188 8.269531 122.488281 8.492188 122.65625 8.691406 C 122.824219 8.890625 123.023438 9.050781 123.253906 9.171875 C 123.484375 9.289062 123.730469 9.363281 123.988281 9.382812 C 124.25 9.40625 124.503906 9.378906 124.75 9.300781 Z M 124.75 9.300781 " fill-opacity="1" fill-rule="nonzero"/><g clip-path="url(#143cd35f36)"><path fill="#081e7c" d="M 212.851562 368.511719 C 205.863281 369.734375 198.8125 370.554688 191.695312 370.96875 C 191.4375 370.984375 191.191406 371.050781 190.957031 371.164062 C 190.722656 371.277344 190.515625 371.429688 190.34375 371.625 C 190.171875 371.820312 190.042969 372.039062 189.957031 372.285156 C 189.871094 372.53125 189.835938 372.785156 189.851562 373.046875 C 189.867188 373.304688 189.929688 373.554688 190.042969 373.789062 C 190.15625 374.023438 190.3125 374.226562 190.507812 374.398438 C 190.699219 374.574219 190.921875 374.703125 191.167969 374.789062 C 191.414062 374.871094 191.667969 374.90625 191.925781 374.894531 C 199.191406 374.46875 206.394531 373.628906 213.527344 372.378906 C 213.785156 372.335938 214.023438 372.242188 214.242188 372.105469 C 214.460938 371.964844 214.648438 371.789062 214.796875 371.574219 C 214.945312 371.359375 215.050781 371.128906 215.105469 370.875 C 215.164062 370.617188 215.167969 370.363281 215.125 370.105469 C 215.078125 369.851562 214.988281 369.613281 214.847656 369.390625 C 214.707031 369.171875 214.53125 368.988281 214.316406 368.835938 C 214.105469 368.6875 213.871094 368.585938 213.617188 368.527344 C 213.363281 368.472656 213.109375 368.464844 212.851562 368.511719 Z M 170.394531 371.011719 C 163.277344 370.621094 156.222656 369.828125 149.230469 368.628906 C 148.976562 368.585938 148.71875 368.59375 148.464844 368.652344 C 148.210938 368.707031 147.980469 368.8125 147.765625 368.964844 C 147.554688 369.113281 147.378906 369.300781 147.238281 369.519531 C 147.101562 369.738281 147.007812 369.976562 146.964844 370.234375 C 146.921875 370.492188 146.929688 370.746094 146.984375 371 C 147.042969 371.253906 147.148438 371.488281 147.296875 371.703125 C 147.449219 371.914062 147.632812 372.089844 147.855469 372.230469 C 148.074219 372.367188 148.3125 372.460938 148.570312 372.503906 C 155.710938 373.726562 162.914062 374.535156 170.179688 374.933594 C 170.441406 374.949219 170.695312 374.910156 170.941406 374.824219 C 171.183594 374.738281 171.40625 374.609375 171.597656 374.433594 C 171.792969 374.261719 171.945312 374.054688 172.058594 373.820312 C 172.171875 373.585938 172.234375 373.339844 172.25 373.078125 C 172.265625 372.820312 172.226562 372.566406 172.140625 372.320312 C 172.054688 372.074219 171.925781 371.855469 171.75 371.660156 C 171.578125 371.464844 171.371094 371.3125 171.136719 371.199219 C 170.902344 371.085938 170.65625 371.023438 170.394531 371.011719 Z M 128.484375 363.832031 C 121.664062 361.832031 114.980469 359.441406 108.433594 356.664062 C 108.191406 356.5625 107.941406 356.511719 107.679688 356.507812 C 107.421875 356.507812 107.171875 356.554688 106.929688 356.652344 C 106.6875 356.75 106.472656 356.890625 106.289062 357.074219 C 106.101562 357.253906 105.957031 357.464844 105.855469 357.707031 C 105.753906 357.945312 105.703125 358.195312 105.699219 358.457031 C 105.699219 358.71875 105.746094 358.96875 105.84375 359.210938 C 105.941406 359.453125 106.082031 359.664062 106.265625 359.851562 C 106.445312 360.035156 106.660156 360.179688 106.898438 360.28125 C 113.585938 363.117188 120.414062 365.558594 127.378906 367.601562 C 127.628906 367.675781 127.882812 367.695312 128.144531 367.667969 C 128.402344 367.640625 128.644531 367.566406 128.875 367.441406 C 129.101562 367.316406 129.296875 367.152344 129.460938 366.949219 C 129.625 366.746094 129.742188 366.519531 129.816406 366.269531 C 129.890625 366.019531 129.914062 365.765625 129.886719 365.503906 C 129.855469 365.246094 129.78125 365.003906 129.65625 364.773438 C 129.53125 364.546875 129.367188 364.347656 129.164062 364.1875 C 128.960938 364.023438 128.734375 363.902344 128.484375 363.832031 Z M 89.339844 347.230469 C 83.160156 343.71875 77.199219 339.863281 71.457031 335.664062 C 71.246094 335.507812 71.011719 335.402344 70.761719 335.339844 C 70.507812 335.277344 70.253906 335.265625 69.996094 335.304688 C 69.738281 335.347656 69.496094 335.433594 69.273438 335.570312 C 69.050781 335.707031 68.863281 335.878906 68.710938 336.089844 C 68.558594 336.296875 68.449219 336.53125 68.386719 336.785156 C 68.324219 337.035156 68.316406 337.292969 68.355469 337.550781 C 68.394531 337.804688 68.484375 338.046875 68.617188 338.269531 C 68.753906 338.492188 68.925781 338.679688 69.136719 338.832031 C 75.003906 343.125 81.089844 347.0625 87.398438 350.644531 C 87.625 350.773438 87.867188 350.855469 88.125 350.886719 C 88.382812 350.917969 88.640625 350.902344 88.890625 350.832031 C 89.140625 350.761719 89.371094 350.648438 89.574219 350.488281 C 89.78125 350.328125 89.949219 350.136719 90.078125 349.910156 C 90.207031 349.683594 90.285156 349.4375 90.316406 349.179688 C 90.351562 348.921875 90.332031 348.667969 90.261719 348.417969 C 90.191406 348.164062 90.078125 347.9375 89.917969 347.730469 C 89.757812 347.527344 89.566406 347.359375 89.339844 347.230469 Z M 55.011719 322.125 C 49.789062 317.296875 44.859375 312.1875 40.21875 306.796875 C 40.050781 306.597656 39.847656 306.441406 39.617188 306.324219 C 39.382812 306.207031 39.136719 306.136719 38.878906 306.117188 C 38.617188 306.097656 38.367188 306.128906 38.117188 306.210938 C 37.871094 306.292969 37.648438 306.417969 37.449219 306.589844 C 37.253906 306.757812 37.097656 306.960938 36.976562 307.191406 C 36.859375 307.425781 36.792969 307.671875 36.773438 307.929688 C 36.753906 308.191406 36.785156 308.445312 36.867188 308.691406 C 36.949219 308.9375 37.074219 309.160156 37.242188 309.359375 C 41.980469 314.863281 47.011719 320.082031 52.347656 325.007812 C 52.539062 325.1875 52.753906 325.320312 53 325.410156 C 53.246094 325.5 53.496094 325.539062 53.757812 325.527344 C 54.015625 325.519531 54.265625 325.460938 54.5 325.351562 C 54.738281 325.242188 54.945312 325.089844 55.121094 324.898438 C 55.296875 324.707031 55.433594 324.492188 55.523438 324.246094 C 55.613281 324 55.652344 323.75 55.640625 323.488281 C 55.632812 323.226562 55.570312 322.980469 55.460938 322.742188 C 55.355469 322.507812 55.203125 322.300781 55.011719 322.125 Z M 27.277344 289.878906 C 23.382812 284.140625 19.828125 278.203125 16.605469 272.074219 C 16.484375 271.84375 16.324219 271.644531 16.125 271.480469 C 15.921875 271.3125 15.699219 271.191406 15.449219 271.113281 C 15.203125 271.035156 14.949219 271.007812 14.6875 271.03125 C 14.429688 271.054688 14.183594 271.128906 13.953125 271.25 C 13.722656 271.371094 13.523438 271.53125 13.359375 271.730469 C 13.191406 271.933594 13.070312 272.15625 12.992188 272.40625 C 12.914062 272.652344 12.886719 272.90625 12.910156 273.167969 C 12.933594 273.425781 13.007812 273.671875 13.128906 273.902344 C 16.417969 280.164062 20.050781 286.222656 24.023438 292.085938 C 24.171875 292.300781 24.351562 292.480469 24.570312 292.625 C 24.789062 292.765625 25.023438 292.863281 25.28125 292.910156 C 25.535156 292.960938 25.792969 292.960938 26.046875 292.90625 C 26.300781 292.855469 26.535156 292.753906 26.753906 292.609375 C 26.96875 292.460938 27.148438 292.28125 27.289062 292.0625 C 27.433594 291.84375 27.53125 291.609375 27.578125 291.351562 C 27.628906 291.097656 27.625 290.839844 27.574219 290.585938 C 27.519531 290.332031 27.421875 290.09375 27.277344 289.878906 Z M 27.277344 289.878906 " fill-opacity="1" fill-rule="nonzero"/></g><g clip-path="url(#7ef0a98d4c)"><path fill="#081e7c" d="M 328.671875 74.507812 C 332.957031 80.1875 336.902344 86.09375 340.503906 92.21875 C 340.636719 92.445312 340.804688 92.636719 341.011719 92.792969 C 341.222656 92.949219 341.453125 93.058594 341.703125 93.125 C 341.957031 93.191406 342.210938 93.207031 342.46875 93.171875 C 342.726562 93.132812 342.96875 93.050781 343.191406 92.917969 C 343.417969 92.785156 343.605469 92.617188 343.765625 92.40625 C 343.921875 92.199219 344.03125 91.96875 344.097656 91.71875 C 344.164062 91.464844 344.179688 91.210938 344.140625 90.953125 C 344.105469 90.695312 344.023438 90.453125 343.890625 90.230469 C 340.210938 83.972656 336.183594 77.941406 331.808594 72.140625 C 331.652344 71.933594 331.460938 71.761719 331.238281 71.628906 C 331.011719 71.5 330.769531 71.414062 330.511719 71.378906 C 330.253906 71.34375 330 71.355469 329.75 71.421875 C 329.496094 71.488281 329.265625 71.597656 329.058594 71.753906 C 328.851562 71.914062 328.679688 72.101562 328.546875 72.328125 C 328.414062 72.550781 328.332031 72.792969 328.296875 73.050781 C 328.257812 73.308594 328.273438 73.566406 328.339844 73.816406 C 328.40625 74.070312 328.515625 74.300781 328.671875 74.507812 Z M 350.222656 111.175781 C 353.097656 117.679688 355.585938 124.332031 357.6875 131.121094 C 357.765625 131.371094 357.886719 131.59375 358.050781 131.796875 C 358.21875 131.996094 358.417969 132.15625 358.648438 132.277344 C 358.878906 132.398438 359.121094 132.472656 359.382812 132.496094 C 359.640625 132.519531 359.894531 132.496094 360.144531 132.417969 C 360.394531 132.339844 360.617188 132.21875 360.816406 132.050781 C 361.019531 131.886719 361.179688 131.6875 361.300781 131.457031 C 361.421875 131.226562 361.496094 130.980469 361.519531 130.722656 C 361.542969 130.464844 361.515625 130.207031 361.4375 129.960938 C 359.292969 123.023438 356.75 116.230469 353.8125 109.585938 C 353.707031 109.347656 353.5625 109.136719 353.375 108.957031 C 353.183594 108.777344 352.96875 108.640625 352.726562 108.546875 C 352.484375 108.453125 352.230469 108.410156 351.972656 108.414062 C 351.710938 108.421875 351.460938 108.476562 351.222656 108.582031 C 350.984375 108.6875 350.777344 108.835938 350.597656 109.023438 C 350.417969 109.210938 350.28125 109.429688 350.1875 109.671875 C 350.09375 109.914062 350.046875 110.164062 350.054688 110.425781 C 350.058594 110.6875 350.117188 110.9375 350.222656 111.175781 Z M 362.796875 151.800781 C 364.097656 158.777344 364.996094 165.820312 365.492188 172.929688 C 365.507812 173.191406 365.578125 173.4375 365.691406 173.671875 C 365.808594 173.902344 365.964844 174.105469 366.160156 174.277344 C 366.359375 174.449219 366.578125 174.574219 366.828125 174.65625 C 367.074219 174.738281 367.328125 174.773438 367.585938 174.753906 C 367.847656 174.734375 368.09375 174.667969 368.328125 174.550781 C 368.558594 174.4375 368.761719 174.28125 368.933594 174.082031 C 369.101562 173.886719 369.230469 173.664062 369.3125 173.417969 C 369.394531 173.171875 369.429688 172.917969 369.410156 172.65625 C 368.902344 165.398438 367.988281 158.203125 366.65625 151.078125 C 366.609375 150.824219 366.515625 150.585938 366.375 150.367188 C 366.230469 150.148438 366.050781 149.964844 365.835938 149.820312 C 365.621094 149.671875 365.386719 149.570312 365.132812 149.515625 C 364.878906 149.464844 364.625 149.460938 364.367188 149.507812 C 364.109375 149.554688 363.875 149.652344 363.65625 149.792969 C 363.4375 149.933594 363.253906 150.113281 363.105469 150.328125 C 362.960938 150.542969 362.859375 150.777344 362.804688 151.035156 C 362.75 151.289062 362.75 151.542969 362.796875 151.800781 Z M 365.765625 194.234375 C 365.453125 201.359375 364.738281 208.421875 363.621094 215.429688 C 363.578125 215.6875 363.589844 215.941406 363.648438 216.195312 C 363.710938 216.449219 363.816406 216.683594 363.96875 216.894531 C 364.121094 217.105469 364.308594 217.277344 364.53125 217.414062 C 364.753906 217.550781 364.992188 217.640625 365.25 217.679688 C 365.507812 217.722656 365.761719 217.710938 366.015625 217.652344 C 366.269531 217.589844 366.5 217.484375 366.710938 217.332031 C 366.921875 217.175781 367.097656 216.992188 367.234375 216.769531 C 367.371094 216.546875 367.457031 216.308594 367.5 216.050781 C 368.640625 208.894531 369.371094 201.679688 369.6875 194.40625 C 369.699219 194.148438 369.660156 193.894531 369.574219 193.648438 C 369.484375 193.40625 369.351562 193.1875 369.175781 192.992188 C 369 192.800781 368.792969 192.652344 368.558594 192.539062 C 368.320312 192.429688 368.074219 192.371094 367.8125 192.359375 C 367.550781 192.347656 367.300781 192.386719 367.054688 192.476562 C 366.808594 192.5625 366.59375 192.695312 366.398438 192.871094 C 366.207031 193.046875 366.058594 193.253906 365.945312 193.492188 C 365.835938 193.726562 365.777344 193.976562 365.765625 194.234375 Z M 359.054688 236.234375 C 357.132812 243.082031 354.820312 249.792969 352.117188 256.371094 C 352.015625 256.613281 351.96875 256.863281 351.96875 257.125 C 351.96875 257.386719 352.019531 257.636719 352.121094 257.875 C 352.21875 258.117188 352.363281 258.328125 352.546875 258.511719 C 352.730469 258.695312 352.945312 258.835938 353.1875 258.9375 C 353.425781 259.035156 353.675781 259.085938 353.9375 259.082031 C 354.199219 259.082031 354.449219 259.03125 354.6875 258.933594 C 354.929688 258.832031 355.140625 258.6875 355.324219 258.503906 C 355.507812 258.320312 355.648438 258.105469 355.75 257.867188 C 358.507812 251.144531 360.871094 244.289062 362.835938 237.296875 C 362.90625 237.046875 362.925781 236.792969 362.894531 236.535156 C 362.863281 236.273438 362.785156 236.03125 362.660156 235.804688 C 362.53125 235.578125 362.363281 235.382812 362.160156 235.222656 C 361.957031 235.0625 361.726562 234.945312 361.476562 234.875 C 361.226562 234.804688 360.972656 234.785156 360.714844 234.816406 C 360.453125 234.847656 360.210938 234.925781 359.984375 235.054688 C 359.757812 235.179688 359.5625 235.347656 359.402344 235.550781 C 359.242188 235.757812 359.125 235.984375 359.054688 236.234375 Z M 359.054688 236.234375 " fill-opacity="1" fill-rule="nonzero"/></g><path fill="#d9f9a5" d="M 318.148438 185.996094 C 318.148438 261.929688 256.609375 323.488281 180.695312 323.488281 C 104.78125 323.488281 43.242188 261.929688 43.242188 185.996094 C 43.242188 110.0625 104.78125 48.507812 180.695312 48.507812 C 256.609375 48.507812 318.148438 110.0625 318.148438 185.996094 " fill-opacity="1" fill-rule="nonzero"/><path fill="#ffffff" d="M 168.242188 148.996094 L 168.242188 252.699219 C 168.242188 256.660156 165.035156 259.867188 161.074219 259.867188 L 9.140625 259.867188 C 5.179688 259.867188 1.972656 256.660156 1.972656 252.699219 L 1.972656 148.996094 L 168.242188 148.996094 " fill-opacity="1" fill-rule="nonzero"/><path stroke-linecap="round" transform="matrix(0.0170087, 0, 0, -0.017013, 0.0078415, 375.221138)" fill="none" stroke-linejoin="round" d="M 9891.098007 13297.20785 L 9891.098007 7201.675793 C 9891.098007 6968.857144 9702.545187 6780.352103 9469.667525 6780.352103 L 536.948957 6780.352103 C 304.071296 6780.352103 115.518476 6968.857144 115.518476 7201.675793 L 115.518476 13297.20785 Z M 9891.098007 13297.20785 " stroke="#081e7c" stroke-width="230.948" stroke-opacity="1" stroke-miterlimit="10"/><path fill="#ff8d8d" d="M 1.972656 148.996094 L 1.972656 117.929688 C 1.972656 113.96875 5.179688 110.761719 9.140625 110.761719 L 161.074219 110.761719 C 165.035156 110.761719 168.242188 113.96875 168.242188 117.929688 L 168.242188 148.996094 L 1.972656 148.996094 " fill-opacity="1" fill-rule="nonzero"/><path stroke-linecap="round" transform="matrix(0.0170087, 0, 0, -0.017013, 0.0078415, 375.221138)" fill="none" stroke-linejoin="round" d="M 115.518476 13297.20785 L 115.518476 15123.249979 C 115.518476 15356.068628 304.071296 15544.573669 536.948957 15544.573669 L 9469.667525 15544.573669 C 9702.545187 15544.573669 9891.098007 15356.068628 9891.098007 15123.249979 L 9891.098007 13297.20785 Z M 115.518476 13297.20785 " stroke="#081e7c" stroke-width="230.948" stroke-opacity="1" stroke-miterlimit="10"/><path stroke-linecap="round" transform="matrix(0.0170087, 0, 0, -0.017013, 0.0078415, 375.221138)" fill="none" stroke-linejoin="round" d="M 9014.017348 7791.528959 L 4869.300238 7791.528959 " stroke="#081e7c" stroke-width="230.948" stroke-opacity="1" stroke-miterlimit="10"/><path stroke-linecap="round" transform="matrix(0.0170087, 0, 0, -0.017013, 0.0078415, 375.221138)" fill="none" stroke-linejoin="round" d="M 5087.479507 11331.107164 L 5677.48218 11836.695592 L 6857.257866 10993.818608 L 8374.177936 12510.813496 " stroke="#081e7c" stroke-width="230.948" stroke-opacity="1" stroke-miterlimit="10"/><path fill="#ffd45a" d="M 57.875 188.183594 C 57.875 196.101562 51.457031 202.519531 43.539062 202.519531 C 35.625 202.519531 29.207031 196.101562 29.207031 188.183594 C 29.207031 180.265625 35.625 173.84375 43.539062 173.84375 C 51.457031 173.84375 57.875 180.265625 57.875 188.183594 " fill-opacity="1" fill-rule="nonzero"/><path stroke-linecap="round" transform="matrix(0.0170087, 0, 0, -0.017013, 0.0078415, 375.221138)" fill="none" stroke-linejoin="round" d="M 3402.216906 10993.818608 C 3402.216906 10528.410913 3024.881603 10151.171228 2559.355943 10151.171228 C 2094.059946 10151.171228 1716.724643 10528.410913 1716.724643 10993.818608 C 1716.724643 11459.226303 2094.059946 11836.695592 2559.355943 11836.695592 C 3024.881603 11836.695592 3402.216906 11459.226303 3402.216906 10993.818608 Z M 3402.216906 10993.818608 " stroke="#081e7c" stroke-width="230.948" stroke-opacity="1" stroke-miterlimit="10"/><path fill="#ffd45a" d="M 14.871094 242.664062 C 14.871094 226.828125 27.707031 213.988281 43.539062 213.988281 C 59.371094 213.988281 72.207031 226.828125 72.207031 242.664062 L 14.871094 242.664062 " fill-opacity="1" fill-rule="nonzero"/><path stroke-linecap="round" transform="matrix(0.0170087, 0, 0, -0.017013, 0.0078415, 375.221138)" fill="none" stroke-linejoin="round" d="M 873.86368 7791.528959 C 873.86368 8722.344349 1628.534286 9477.053324 2559.355943 9477.053324 C 3490.1776 9477.053324 4244.848206 8722.344349 4244.848206 7791.528959 Z M 873.86368 7791.528959 " stroke="#081e7c" stroke-width="230.948" stroke-opacity="1" stroke-miterlimit="10"/><path fill="#ffffff" d="M 32.074219 130.832031 C 32.074219 135.585938 28.222656 139.433594 23.472656 139.433594 C 18.722656 139.433594 14.871094 135.585938 14.871094 130.832031 C 14.871094 126.082031 18.722656 122.230469 23.472656 122.230469 C 28.222656 122.230469 32.074219 126.082031 32.074219 130.832031 " fill-opacity="1" fill-rule="nonzero"/><path stroke-linecap="round" transform="matrix(0.0170087, 0, 0, -0.017013, 0.0078415, 375.221138)" fill="none" stroke-linejoin="round" d="M 1885.296835 14364.867337 C 1885.296835 14085.439037 1658.849721 13859.278909 1379.580258 13859.278909 C 1100.310794 13859.278909 873.86368 14085.439037 873.86368 14364.867337 C 873.86368 14644.066033 1100.310794 14870.455765 1379.580258 14870.455765 C 1658.849721 14870.455765 1885.296835 14644.066033 1885.296835 14364.867337 Z M 1885.296835 14364.867337 " stroke="#081e7c" stroke-width="230.948" stroke-opacity="1" stroke-miterlimit="10"/><path fill="#ffffff" d="M 61.457031 130.832031 C 61.457031 135.585938 57.605469 139.433594 52.855469 139.433594 C 48.105469 139.433594 44.257812 135.585938 44.257812 130.832031 C 44.257812 126.082031 48.105469 122.230469 52.855469 122.230469 C 57.605469 122.230469 61.457031 126.082031 61.457031 130.832031 " fill-opacity="1" fill-rule="nonzero"/><path stroke-linecap="round" transform="matrix(0.0170087, 0, 0, -0.017013, 0.0078415, 375.221138)" fill="none" stroke-linejoin="round" d="M 3612.817315 14364.867337 C 3612.817315 14085.439037 3386.370201 13859.278909 3107.100738 13859.278909 C 2827.831274 13859.278909 2601.613823 14085.439037 2601.613823 14364.867337 C 2601.613823 14644.066033 2827.831274 14870.455765 3107.100738 14870.455765 C 3386.370201 14870.455765 3612.817315 14644.066033 3612.817315 14364.867337 Z M 3612.817315 14364.867337 " stroke="#081e7c" stroke-width="230.948" stroke-opacity="1" stroke-miterlimit="10"/><path fill="#ffffff" d="M 90.839844 130.832031 C 90.839844 135.585938 86.988281 139.433594 82.238281 139.433594 C 77.492188 139.433594 73.640625 135.585938 73.640625 130.832031 C 73.640625 126.082031 77.492188 122.230469 82.238281 122.230469 C 86.988281 122.230469 90.839844 126.082031 90.839844 130.832031 " fill-opacity="1" fill-rule="nonzero"/><path stroke-linecap="round" transform="matrix(0.0170087, 0, 0, -0.017013, 0.0078415, 375.221138)" fill="none" stroke-linejoin="round" d="M 5340.337795 14364.867337 C 5340.337795 14085.439037 5113.890681 13859.278909 4834.621218 13859.278909 C 4555.581417 13859.278909 4329.134302 14085.439037 4329.134302 14364.867337 C 4329.134302 14644.066033 4555.581417 14870.455765 4834.621218 14870.455765 C 5113.890681 14870.455765 5340.337795 14644.066033 5340.337795 14364.867337 Z M 5340.337795 14364.867337 " stroke="#081e7c" stroke-width="230.948" stroke-opacity="1" stroke-miterlimit="10"/><path fill="#7dd86f" d="M 148.289062 242.671875 L 148.289062 192.464844 C 148.289062 190.878906 147.007812 189.597656 145.425781 189.597656 L 131.089844 189.597656 C 129.507812 189.597656 128.222656 190.878906 128.222656 192.464844 L 128.222656 242.671875 L 148.289062 242.671875 " fill-opacity="1" fill-rule="nonzero"/><path stroke-linecap="round" transform="matrix(0.0170087, 0, 0, -0.017013, 0.0078415, 375.221138)" fill="none" stroke-linejoin="round" d="M 8717.982531 7791.069751 L 8717.982531 10742.172415 C 8717.982531 10835.391716 8642.653267 10910.701891 8549.64 10910.701891 L 7706.779038 10910.701891 C 7613.765771 10910.701891 7538.206845 10835.391716 7538.206845 10742.172415 L 7538.206845 7791.069751 Z M 8717.982531 7791.069751 " stroke="#081e7c" stroke-width="230.948" stroke-opacity="1" stroke-miterlimit="10"/><path fill="#7dd86f" d="M 127.925781 242.65625 L 127.925781 216.359375 C 127.925781 215.304688 126.652344 214.449219 125.082031 214.449219 L 110.871094 214.449219 C 109.300781 214.449219 108.03125 215.304688 108.03125 216.359375 L 108.03125 242.65625 L 127.925781 242.65625 " fill-opacity="1" fill-rule="nonzero"/><path stroke-linecap="round" transform="matrix(0.0170087, 0, 0, -0.017013, 0.0078415, 375.221138)" fill="none" stroke-linejoin="round" d="M 7520.752504 7791.988168 L 7520.752504 9337.68358 C 7520.752504 9399.676711 7445.882565 9449.960029 7353.558286 9449.960029 L 6518.046519 9449.960029 C 6425.722239 9449.960029 6351.081963 9399.676711 6351.081963 9337.68358 L 6351.081963 7791.988168 Z M 7520.752504 7791.988168 " stroke="#081e7c" stroke-width="230.948" stroke-opacity="1" stroke-miterlimit="10"/><path fill="#7dd86f" d="M 108.15625 242.671875 L 108.15625 203.933594 C 108.15625 202.347656 106.875 201.066406 105.289062 201.066406 L 90.957031 201.066406 C 89.375 201.066406 88.089844 202.347656 88.089844 203.933594 L 88.089844 242.671875 L 108.15625 242.671875 " fill-opacity="1" fill-rule="nonzero"/><path stroke-linecap="round" transform="matrix(0.0170087, 0, 0, -0.017013, 0.0078415, 375.221138)" fill="none" stroke-linejoin="round" d="M 6358.43116 7791.069751 L 6358.43116 10068.054511 C 6358.43116 10161.273812 6283.101897 10236.583987 6189.858967 10236.583987 L 5347.227667 10236.583987 C 5254.2144 10236.583987 5178.655474 10161.273812 5178.655474 10068.054511 L 5178.655474 7791.069751 Z M 6358.43116 7791.069751 " stroke="#081e7c" stroke-width="230.948" stroke-opacity="1" stroke-miterlimit="10"/><path fill="#7dd86f" d="M 223.640625 48.078125 C 223.640625 70.265625 205.65625 88.25 183.476562 88.25 C 161.296875 88.25 143.3125 70.265625 143.3125 48.078125 C 143.3125 25.890625 161.296875 7.90625 183.476562 7.90625 C 205.65625 7.90625 223.640625 25.890625 223.640625 48.078125 " fill-opacity="1" fill-rule="nonzero"/><path stroke-linecap="round" transform="matrix(0.0170087, 0, 0, -0.017013, 0.0078415, 375.221138)" fill="none" stroke-linejoin="round" d="M 13148.169989 19229.032118 C 13148.169989 17924.880315 12090.804356 16867.78262 10786.781319 16867.78262 C 9482.758282 16867.78262 8425.392649 17924.880315 8425.392649 19229.032118 C 8425.392649 20533.183922 9482.758282 21590.281616 10786.781319 21590.281616 C 12090.804356 21590.281616 13148.169989 20533.183922 13148.169989 19229.032118 Z M 13148.169989 19229.032118 " stroke="#081e7c" stroke-width="230.948" stroke-opacity="1" stroke-miterlimit="10"/><path fill="#ffffff" d="M 208.859375 31.753906 C 210.507812 34.15625 210.210938 37.394531 208.144531 39.449219 L 179.160156 68.351562 C 178.875 68.691406 178.382812 68.710938 178.085938 68.390625 L 158.140625 50.578125 C 156.167969 48.820312 155.605469 45.964844 156.757812 43.585938 C 158.457031 40.082031 163.023438 39.152344 165.960938 41.707031 L 177.796875 52.015625 C 178.09375 52.335938 178.585938 52.316406 178.871094 51.976562 L 199.582031 30.9375 C 202.246094 28.234375 206.710938 28.628906 208.859375 31.753906 " fill-opacity="1" fill-rule="nonzero"/><path stroke-linecap="round" transform="matrix(0.0170087, 0, 0, -0.017013, 0.0078415, 375.221138)" fill="none" stroke-linejoin="round" d="M 12279.127514 20188.548032 C 12376.045041 20047.341454 12358.5907 19856.99958 12237.099297 19736.227776 L 10533.00438 18037.386368 C 10516.239026 18017.410804 10487.301565 18016.262783 10469.847224 18035.090326 L 9297.191072 19082.085436 C 9181.211567 19185.407322 9148.140183 19353.247986 9215.890587 19493.076938 C 9315.793726 19699.031897 9584.269057 19753.677694 9756.975172 19603.516554 L 10452.852207 18997.591094 C 10470.306548 18978.76355 10499.244009 18979.911571 10516.009364 18999.887136 L 11733.679343 20236.535307 C 11890.309091 20395.421407 12152.8132 20372.231384 12279.127514 20188.548032 Z M 12279.127514 20188.548032 " stroke="#081e7c" stroke-width="230.948" stroke-opacity="1" stroke-miterlimit="10"/><path fill="#ff8d8d" d="M 317.699219 48.078125 C 317.699219 70.144531 299.816406 88.035156 277.753906 88.035156 C 255.6875 88.035156 237.804688 70.144531 237.804688 48.078125 C 237.804688 26.007812 255.6875 8.117188 277.753906 8.117188 C 299.816406 8.117188 317.699219 26.007812 317.699219 48.078125 " fill-opacity="1" fill-rule="nonzero"/><path stroke-linecap="round" transform="matrix(0.0170087, 0, 0, -0.017013, 0.0078415, 375.221138)" fill="none" stroke-linejoin="round" d="M 18678.210621 19229.032118 C 18678.210621 17931.998045 17626.81621 16880.410851 16329.683045 16880.410851 C 15032.320217 16880.410851 13980.925806 17931.998045 13980.925806 19229.032118 C 13980.925806 20526.295796 15032.320217 21577.88299 16329.683045 21577.88299 C 17626.81621 21577.88299 18678.210621 20526.295796 18678.210621 19229.032118 Z M 18678.210621 19229.032118 " stroke="#081e7c" stroke-width="230.948" stroke-opacity="1" stroke-miterlimit="10"/><path fill="#ffffff" d="M 296.949219 30.785156 C 294.496094 28.332031 290.519531 28.332031 288.066406 30.785156 L 277.753906 41.105469 L 267.433594 30.785156 C 264.980469 28.332031 261.007812 28.332031 258.554688 30.785156 C 256.105469 33.238281 256.105469 37.214844 258.554688 39.667969 L 268.871094 49.988281 L 258.554688 60.308594 C 256.105469 62.757812 256.105469 66.738281 258.554688 69.191406 C 261.007812 71.640625 264.980469 71.640625 267.433594 69.191406 L 277.753906 58.871094 L 288.066406 69.191406 C 290.519531 71.640625 294.496094 71.640625 296.949219 69.191406 C 299.402344 66.738281 299.402344 62.757812 296.949219 60.308594 L 286.632812 49.988281 L 296.949219 39.667969 C 299.402344 37.214844 299.402344 33.238281 296.949219 30.785156 " fill-opacity="1" fill-rule="nonzero"/><path stroke-linecap="round" transform="matrix(0.0170087, 0, 0, -0.017013, 0.0078415, 375.221138)" fill="none" stroke-linejoin="round" d="M 17458.244018 20245.489871 C 17314.016038 20389.681303 17080.219728 20389.681303 16935.991748 20245.489871 L 16329.683045 19638.875599 L 15722.915017 20245.489871 C 15578.687037 20389.681303 15345.120389 20389.681303 15200.892409 20245.489871 C 15056.894092 20101.298439 15056.894092 19867.561373 15200.892409 19723.369941 L 15807.430775 19116.755669 L 15200.892409 18510.141397 C 15056.894092 18366.179569 15056.894092 18132.212899 15200.892409 17988.021467 C 15345.120389 17844.05964 15578.687037 17844.05964 15722.915017 17988.021467 L 16329.683045 18594.635739 L 16935.991748 17988.021467 C 17080.219728 17844.05964 17314.016038 17844.05964 17458.244018 17988.021467 C 17602.471997 18132.212899 17602.471997 18366.179569 17458.244018 18510.141397 L 16851.705652 19116.755669 L 17458.244018 19723.369941 C 17602.471997 19867.561373 17602.471997 20101.298439 17458.244018 20245.489871 Z M 17458.244018 20245.489871 " stroke="#081e7c" stroke-width="230.948" stroke-opacity="1" stroke-miterlimit="10"/><path stroke-linecap="round" transform="matrix(0.0170087, 0, 0, -0.017013, 0.0078415, 375.221138)" fill-opacity="1" fill="#ffffff" fill-rule="nonzero" stroke-linejoin="round" d="M 13941.8832 11084.512263 C 12911.388067 11881.468409 12002.613999 13388.131109 12002.613999 13388.131109 C 11824.625648 13603.040632 11854.711421 13921.27204 12069.445754 14098.985684 C 12284.180086 14276.699328 12602.262493 14246.850783 12780.021181 14031.94126 L 13737.254013 12875.195347 L 12830.087582 16353.698837 C 12759.810891 16623.483761 12921.493212 16899.467999 13191.116855 16969.726881 C 13460.970161 17039.985764 13736.794688 16878.344413 13807.071379 16608.329885 L 14357.34246 14497.808163 C 14287.065769 14767.822692 14448.518427 15043.577325 14718.371733 15113.836207 C 14987.995376 15184.324694 15263.819904 15022.453739 15334.326257 14752.668815 L 15359.589119 14654.85743 C 15289.312429 14924.642354 15450.99475 15200.396987 15720.618393 15270.885474 C 15990.471698 15341.144356 16266.066563 15179.503006 16336.572916 14909.718082 L 16362.065441 14811.906696 C 16291.559088 15081.69162 16453.241409 15357.446254 16723.094715 15427.705136 C 16992.718358 15498.193622 17268.542886 15336.322668 17338.819576 15066.537744 L 17718.221841 13611.076778 C 18053.528927 12325.29331 17283.470941 11011.498131 15998.050557 10676.276012 C 15530.228273 10554.356187 15058.731392 10578.923835 14632.018675 10721.508038 C 14383.523972 10804.39515 14150.416648 10927.233393 13941.8832 11084.512263 " stroke="#081e7c" stroke-width="230.948" stroke-opacity="1" stroke-miterlimit="10"/><path stroke-linecap="round" transform="matrix(0.0170087, 0, 0, -0.017013, 0.0078415, 375.221138)" fill-opacity="1" fill="#ffffff" fill-rule="nonzero" stroke-linejoin="round" d="M 15397.942738 14508.369956 L 15334.326257 14752.668815 " stroke="#081e7c" stroke-width="230.948" stroke-opacity="1" stroke-miterlimit="10"/><path stroke-linecap="round" transform="matrix(0.0170087, 0, 0, -0.017013, 0.0078415, 375.221138)" fill-opacity="1" fill="#ffffff" fill-rule="nonzero" stroke-linejoin="round" d="M 14357.572122 14498.037767 L 14421.188603 14253.738908 " stroke="#081e7c" stroke-width="230.948" stroke-opacity="1" stroke-miterlimit="10"/><path stroke-linecap="round" transform="matrix(0.0170087, 0, 0, -0.017013, 0.0078415, 375.221138)" fill-opacity="1" fill="#ffffff" fill-rule="nonzero" stroke-linejoin="round" d="M 16362.065441 14811.906696 L 16374.696873 14763.001004 " stroke="#081e7c" stroke-width="230.948" stroke-opacity="1" stroke-miterlimit="10"/><path fill="#ffffff" d="M 180.867188 292.257812 C 180.867188 334.097656 214.777344 368.019531 256.605469 368.019531 C 298.433594 368.019531 332.34375 334.097656 332.34375 292.257812 C 332.34375 250.417969 298.433594 216.5 256.605469 216.5 C 214.777344 216.5 180.867188 250.417969 180.867188 292.257812 " fill-opacity="1" fill-rule="nonzero"/><path stroke-linecap="round" transform="matrix(0.0170087, 0, 0, -0.017013, 0.0078415, 375.221138)" fill="none" stroke-linejoin="round" d="M 10633.366844 4876.474153 C 10633.366844 2417.183666 12627.066031 423.300873 15086.290878 423.300873 C 17545.515725 423.300873 19539.214912 2417.183666 19539.214912 4876.474153 C 19539.214912 7335.76464 17545.515725 9329.417829 15086.290878 9329.417829 C 12627.066031 9329.417829 10633.366844 7335.76464 10633.366844 4876.474153 Z M 10633.366844 4876.474153 " stroke="#081e7c" stroke-width="230.948" stroke-opacity="1" stroke-miterlimit="10"/><path fill="#ffd45a" d="M 327.894531 241.933594 C 321.660156 235.699219 311.558594 235.699219 305.324219 241.933594 L 255.566406 291.710938 L 237.082031 273.222656 C 230.847656 266.988281 220.746094 266.988281 214.515625 273.222656 C 208.28125 279.453125 208.28125 289.558594 214.515625 295.792969 L 242.925781 324.210938 C 246.390625 327.675781 251.042969 329.144531 255.566406 328.757812 C 260.085938 329.144531 264.738281 327.675781 268.199219 324.210938 L 327.894531 264.507812 C 334.125 258.273438 334.125 248.171875 327.894531 241.933594 " fill-opacity="1" fill-rule="nonzero"/><path stroke-linecap="round" transform="matrix(0.0170087, 0, 0, -0.017013, 0.0078415, 375.221138)" fill="none" stroke-linejoin="round" d="M 19277.629453 7834.464943 C 18911.088282 8200.913231 18317.181348 8200.913231 17950.640177 7834.464943 L 15025.200683 4908.61874 L 13938.438265 5995.335375 C 13571.897094 6361.783663 12977.990159 6361.783663 12611.678651 5995.335375 C 12245.13748 5629.11669 12245.13748 5035.130649 12611.678651 4668.68236 L 14282.013196 2998.311873 C 14485.723734 2794.652955 14759.251638 2708.32178 15025.200683 2731.052594 C 15290.920065 2708.32178 15564.447969 2794.652955 15767.928845 2998.311873 L 19277.629453 6507.582324 C 19643.940961 6874.030613 19643.940961 7467.78705 19277.629453 7834.464943 Z M 19277.629453 7834.464943 " stroke="#081e7c" stroke-width="230.948" stroke-opacity="1" stroke-miterlimit="10"/></svg>