<svg xmlns="http://www.w3.org/2000/svg" xmlns:xlink="http://www.w3.org/1999/xlink" width="500" zoomAndPan="magnify" viewBox="0 0 375 374.999991" height="500" preserveAspectRatio="xMidYMid meet" version="1.0"><defs><clipPath id="42a550168c"><path d="M 0 0 L 375 0 L 375 373.5 L 0 373.5 Z M 0 0 " clip-rule="nonzero"/></clipPath></defs><g clip-path="url(#42a550168c)"><path fill="#000000" d="M 260.78125 259.929688 C 260.316406 260.386719 259.855469 260.832031 259.390625 261.28125 C 257.210938 231.632812 236.425781 207.085938 208.703125 199.3125 C 221.941406 191.851562 230.914062 177.652344 230.914062 161.386719 L 230.914062 151.714844 C 230.914062 127.730469 211.417969 108.214844 187.457031 108.214844 C 163.496094 108.214844 144.003906 127.730469 144.003906 151.714844 L 144.003906 161.386719 C 144.003906 177.652344 152.972656 191.851562 166.214844 199.3125 C 138.996094 206.941406 118.472656 230.738281 115.667969 259.667969 C 115.566406 259.566406 115.464844 259.472656 115.363281 259.371094 C 95.929688 239.914062 85.292969 214.148438 85.421875 186.808594 C 85.691406 130.027344 131.832031 83.832031 188.277344 83.832031 C 244.992188 83.832031 291.132812 130.019531 291.132812 186.792969 C 291.132812 214.445312 280.355469 240.421875 260.78125 259.929688 Z M 152.144531 161.386719 L 152.144531 151.714844 C 152.144531 132.226562 167.988281 116.367188 187.457031 116.367188 C 206.929688 116.367188 222.769531 132.226562 222.769531 151.714844 L 222.769531 161.386719 C 222.769531 180.886719 206.929688 196.746094 187.457031 196.746094 C 167.988281 196.746094 152.144531 180.886719 152.144531 161.386719 Z M 188.300781 289.753906 C 164.382812 289.640625 141.738281 281.515625 123.460938 266.671875 C 123.464844 266.597656 123.476562 266.519531 123.476562 266.445312 C 123.476562 232.5 151.058594 204.890625 184.96875 204.890625 L 189.945312 204.890625 C 223.859375 204.890625 251.4375 232.5 251.4375 266.445312 C 251.4375 266.976562 251.550781 267.488281 251.734375 267.957031 C 233.714844 282.183594 211.695312 289.828125 188.300781 289.753906 Z M 188.277344 75.6875 C 127.355469 75.6875 77.570312 125.515625 77.285156 186.777344 C 77.148438 216.300781 88.625 244.121094 109.609375 265.132812 C 130.582031 286.125 158.519531 297.769531 188.257812 297.902344 L 188.773438 297.902344 C 218.078125 297.902344 245.667969 286.480469 266.523438 265.699219 C 287.648438 244.652344 299.277344 216.632812 299.277344 186.792969 C 299.277344 125.527344 249.480469 75.6875 188.277344 75.6875 Z M 260.78125 259.929688 C 260.316406 260.386719 259.855469 260.832031 259.390625 261.28125 C 257.210938 231.632812 236.425781 207.085938 208.703125 199.3125 C 221.941406 191.851562 230.914062 177.652344 230.914062 161.386719 L 230.914062 151.714844 C 230.914062 127.730469 211.417969 108.214844 187.457031 108.214844 C 163.496094 108.214844 144.003906 127.730469 144.003906 151.714844 L 144.003906 161.386719 C 144.003906 177.652344 152.972656 191.851562 166.214844 199.3125 C 138.996094 206.941406 118.472656 230.738281 115.667969 259.667969 C 115.566406 259.566406 115.464844 259.472656 115.363281 259.371094 C 95.929688 239.914062 85.292969 214.148438 85.421875 186.808594 C 85.691406 130.027344 131.832031 83.832031 188.277344 83.832031 C 244.992188 83.832031 291.132812 130.019531 291.132812 186.792969 C 291.132812 214.445312 280.355469 240.421875 260.78125 259.929688 Z M 152.144531 161.386719 L 152.144531 151.714844 C 152.144531 132.226562 167.988281 116.367188 187.457031 116.367188 C 206.929688 116.367188 222.769531 132.226562 222.769531 151.714844 L 222.769531 161.386719 C 222.769531 180.886719 206.929688 196.746094 187.457031 196.746094 C 167.988281 196.746094 152.144531 180.886719 152.144531 161.386719 Z M 188.300781 289.753906 C 164.382812 289.640625 141.738281 281.515625 123.460938 266.671875 C 123.464844 266.597656 123.476562 266.519531 123.476562 266.445312 C 123.476562 232.5 151.058594 204.890625 184.96875 204.890625 L 189.945312 204.890625 C 223.859375 204.890625 251.4375 232.5 251.4375 266.445312 C 251.4375 266.976562 251.550781 267.488281 251.734375 267.957031 C 233.714844 282.183594 211.695312 289.828125 188.300781 289.753906 Z M 188.277344 75.6875 C 127.355469 75.6875 77.570312 125.515625 77.285156 186.777344 C 77.148438 216.300781 88.625 244.121094 109.609375 265.132812 C 130.582031 286.125 158.519531 297.769531 188.257812 297.902344 L 188.773438 297.902344 C 218.078125 297.902344 245.667969 286.480469 266.523438 265.699219 C 287.648438 244.652344 299.277344 216.632812 299.277344 186.792969 C 299.277344 125.527344 249.480469 75.6875 188.277344 75.6875 Z M 260.78125 259.929688 C 260.316406 260.386719 259.855469 260.832031 259.390625 261.28125 C 257.210938 231.632812 236.425781 207.085938 208.703125 199.3125 C 221.941406 191.851562 230.914062 177.652344 230.914062 161.386719 L 230.914062 151.714844 C 230.914062 127.730469 211.417969 108.214844 187.457031 108.214844 C 163.496094 108.214844 144.003906 127.730469 144.003906 151.714844 L 144.003906 161.386719 C 144.003906 177.652344 152.972656 191.851562 166.214844 199.3125 C 138.996094 206.941406 118.472656 230.738281 115.667969 259.667969 C 115.566406 259.566406 115.464844 259.472656 115.363281 259.371094 C 95.929688 239.914062 85.292969 214.148438 85.421875 186.808594 C 85.691406 130.027344 131.832031 83.832031 188.277344 83.832031 C 244.992188 83.832031 291.132812 130.019531 291.132812 186.792969 C 291.132812 214.445312 280.355469 240.421875 260.78125 259.929688 Z M 152.144531 161.386719 L 152.144531 151.714844 C 152.144531 132.226562 167.988281 116.367188 187.457031 116.367188 C 206.929688 116.367188 222.769531 132.226562 222.769531 151.714844 L 222.769531 161.386719 C 222.769531 180.886719 206.929688 196.746094 187.457031 196.746094 C 167.988281 196.746094 152.144531 180.886719 152.144531 161.386719 Z M 188.300781 289.753906 C 164.382812 289.640625 141.738281 281.515625 123.460938 266.671875 C 123.464844 266.597656 123.476562 266.519531 123.476562 266.445312 C 123.476562 232.5 151.058594 204.890625 184.96875 204.890625 L 189.945312 204.890625 C 223.859375 204.890625 251.4375 232.5 251.4375 266.445312 C 251.4375 266.976562 251.550781 267.488281 251.734375 267.957031 C 233.714844 282.183594 211.695312 289.828125 188.300781 289.753906 Z M 188.277344 75.6875 C 127.355469 75.6875 77.570312 125.515625 77.285156 186.777344 C 77.148438 216.300781 88.625 244.121094 109.609375 265.132812 C 130.582031 286.125 158.519531 297.769531 188.257812 297.902344 L 188.773438 297.902344 C 218.078125 297.902344 245.667969 286.480469 266.523438 265.699219 C 287.648438 244.652344 299.277344 216.632812 299.277344 186.792969 C 299.277344 125.527344 249.480469 75.6875 188.277344 75.6875 Z M 260.78125 259.929688 C 260.316406 260.386719 259.855469 260.832031 259.390625 261.28125 C 257.210938 231.632812 236.425781 207.085938 208.703125 199.3125 C 221.941406 191.851562 230.914062 177.652344 230.914062 161.386719 L 230.914062 151.714844 C 230.914062 127.730469 211.417969 108.214844 187.457031 108.214844 C 163.496094 108.214844 144.003906 127.730469 144.003906 151.714844 L 144.003906 161.386719 C 144.003906 177.652344 152.972656 191.851562 166.214844 199.3125 C 138.996094 206.941406 118.472656 230.738281 115.667969 259.667969 C 115.566406 259.566406 115.464844 259.472656 115.363281 259.371094 C 95.929688 239.914062 85.292969 214.148438 85.421875 186.808594 C 85.691406 130.027344 131.832031 83.832031 188.277344 83.832031 C 244.992188 83.832031 291.132812 130.019531 291.132812 186.792969 C 291.132812 214.445312 280.355469 240.421875 260.78125 259.929688 Z M 152.144531 161.386719 L 152.144531 151.714844 C 152.144531 132.226562 167.988281 116.367188 187.457031 116.367188 C 206.929688 116.367188 222.769531 132.226562 222.769531 151.714844 L 222.769531 161.386719 C 222.769531 180.886719 206.929688 196.746094 187.457031 196.746094 C 167.988281 196.746094 152.144531 180.886719 152.144531 161.386719 Z M 188.300781 289.753906 C 164.382812 289.640625 141.738281 281.515625 123.460938 266.671875 C 123.464844 266.597656 123.476562 266.519531 123.476562 266.445312 C 123.476562 232.5 151.058594 204.890625 184.96875 204.890625 L 189.945312 204.890625 C 223.859375 204.890625 251.4375 232.5 251.4375 266.445312 C 251.4375 266.976562 251.550781 267.488281 251.734375 267.957031 C 233.714844 282.183594 211.695312 289.828125 188.300781 289.753906 Z M 188.277344 75.6875 C 127.355469 75.6875 77.570312 125.515625 77.285156 186.777344 C 77.148438 216.300781 88.625 244.121094 109.609375 265.132812 C 130.582031 286.125 158.519531 297.769531 188.257812 297.902344 L 188.773438 297.902344 C 218.078125 297.902344 245.667969 286.480469 266.523438 265.699219 C 287.648438 244.652344 299.277344 216.632812 299.277344 186.792969 C 299.277344 125.527344 249.480469 75.6875 188.277344 75.6875 Z M 365.234375 210.507812 L 342.742188 210.507812 C 342.707031 210.507812 342.675781 210.511719 342.632812 210.511719 C 342.574219 210.511719 342.511719 210.511719 342.464844 210.523438 C 342.378906 210.523438 342.296875 210.535156 342.210938 210.550781 C 342.167969 210.550781 342.128906 210.554688 342.085938 210.566406 C 341.984375 210.582031 341.890625 210.597656 341.789062 210.625 C 341.773438 210.632812 341.746094 210.632812 341.722656 210.640625 C 341.609375 210.667969 341.5 210.703125 341.390625 210.746094 C 341.382812 210.746094 341.375 210.75 341.367188 210.75 C 341.246094 210.792969 341.128906 210.84375 341.019531 210.894531 C 341.019531 210.894531 341.019531 210.894531 341.011719 210.894531 C 340.902344 210.957031 340.785156 211.015625 340.671875 211.082031 C 340.671875 211.082031 340.671875 211.082031 340.667969 211.082031 C 340.566406 211.148438 340.457031 211.214844 340.355469 211.28125 C 340.34375 211.292969 340.335938 211.300781 340.328125 211.308594 C 340.234375 211.378906 340.152344 211.445312 340.066406 211.519531 C 340.039062 211.535156 340.023438 211.554688 340.007812 211.570312 C 339.933594 211.640625 339.863281 211.703125 339.796875 211.78125 C 339.765625 211.808594 339.738281 211.839844 339.710938 211.867188 C 339.652344 211.9375 339.601562 212 339.542969 212.070312 C 339.519531 212.109375 339.484375 212.152344 339.449219 212.195312 C 339.40625 212.257812 339.363281 212.316406 339.324219 212.375 C 339.289062 212.433594 339.265625 212.484375 339.230469 212.53125 C 339.195312 212.59375 339.164062 212.652344 339.128906 212.710938 C 339.105469 212.769531 339.070312 212.832031 339.046875 212.890625 C 339.019531 212.949219 338.996094 213.015625 338.96875 213.074219 C 338.941406 213.132812 338.917969 213.203125 338.902344 213.257812 C 338.878906 213.328125 338.851562 213.394531 338.835938 213.464844 C 338.816406 213.523438 338.800781 213.582031 338.792969 213.640625 C 338.773438 213.71875 338.757812 213.792969 338.742188 213.871094 C 338.730469 213.894531 338.726562 213.929688 338.726562 213.953125 C 335.347656 235.835938 327.609375 254.328125 313.632812 273.929688 C 313.625 273.953125 313.617188 273.972656 313.601562 273.996094 C 313.515625 274.113281 313.449219 274.25 313.378906 274.378906 C 313.320312 274.488281 313.253906 274.59375 313.210938 274.703125 C 313.152344 274.832031 313.117188 274.96875 313.074219 275.09375 C 313.042969 275.222656 312.992188 275.335938 312.96875 275.464844 C 312.941406 275.59375 312.933594 275.71875 312.925781 275.847656 C 312.90625 275.980469 312.890625 276.105469 312.882812 276.242188 C 312.882812 276.378906 312.898438 276.507812 312.914062 276.640625 C 312.925781 276.765625 312.925781 276.890625 312.949219 277.011719 C 312.972656 277.144531 313.015625 277.273438 313.050781 277.410156 C 313.085938 277.527344 313.117188 277.65625 313.160156 277.773438 C 313.203125 277.890625 313.269531 278 313.328125 278.109375 C 313.390625 278.234375 313.449219 278.363281 313.523438 278.484375 C 313.582031 278.574219 313.660156 278.667969 313.726562 278.753906 C 313.828125 278.878906 313.921875 279.003906 314.027344 279.125 C 314.046875 279.140625 314.054688 279.15625 314.070312 279.175781 L 330.109375 295.226562 C 320.238281 308.285156 309.269531 319.34375 296.71875 328.875 L 280.574219 312.714844 C 280.554688 312.699219 280.539062 312.6875 280.523438 312.671875 C 280.40625 312.5625 280.28125 312.472656 280.152344 312.375 C 280.070312 312.300781 279.976562 312.222656 279.882812 312.164062 C 279.765625 312.089844 279.636719 312.027344 279.511719 311.972656 C 279.394531 311.914062 279.285156 311.855469 279.175781 311.800781 C 279.046875 311.761719 278.921875 311.726562 278.800781 311.691406 C 278.675781 311.660156 278.546875 311.617188 278.414062 311.589844 C 278.289062 311.566406 278.160156 311.566406 278.023438 311.558594 C 277.898438 311.550781 277.773438 311.523438 277.644531 311.53125 C 277.511719 311.53125 277.375 311.550781 277.238281 311.566406 C 277.113281 311.582031 276.996094 311.589844 276.871094 311.617188 C 276.742188 311.640625 276.617188 311.683594 276.488281 311.726562 C 276.363281 311.769531 276.238281 311.800781 276.109375 311.855469 C 275.992188 311.902344 275.890625 311.972656 275.78125 312.027344 C 275.644531 312.097656 275.519531 312.15625 275.398438 312.238281 C 275.378906 312.257812 275.351562 312.265625 275.335938 312.28125 C 257.207031 325.242188 238.140625 333.148438 215.335938 337.183594 C 215.320312 337.1875 215.300781 337.1875 215.28125 337.199219 C 215.199219 337.207031 215.125 337.230469 215.046875 337.25 C 214.988281 337.265625 214.9375 337.273438 214.878906 337.292969 C 214.8125 337.3125 214.734375 337.339844 214.667969 337.367188 C 214.609375 337.382812 214.550781 337.398438 214.5 337.425781 C 214.433594 337.453125 214.371094 337.476562 214.3125 337.507812 C 214.253906 337.535156 214.1875 337.566406 214.128906 337.59375 C 214.078125 337.621094 214.035156 337.652344 213.984375 337.679688 C 213.917969 337.71875 213.847656 337.757812 213.789062 337.796875 C 213.746094 337.832031 213.707031 337.867188 213.664062 337.890625 C 213.59375 337.941406 213.535156 337.984375 213.46875 338.035156 C 213.425781 338.066406 213.394531 338.101562 213.351562 338.140625 C 213.292969 338.195312 213.242188 338.238281 213.183594 338.296875 C 213.140625 338.335938 213.097656 338.378906 213.054688 338.421875 C 213.015625 338.472656 212.960938 338.523438 212.921875 338.574219 C 212.878906 338.632812 212.835938 338.683594 212.792969 338.742188 C 212.761719 338.785156 212.71875 338.835938 212.683594 338.886719 C 212.640625 338.949219 212.609375 339.015625 212.566406 339.082031 C 212.539062 339.121094 212.507812 339.164062 212.480469 339.214844 C 212.449219 339.285156 212.414062 339.355469 212.371094 339.425781 C 212.355469 339.46875 212.328125 339.523438 212.3125 339.566406 C 212.28125 339.636719 212.253906 339.707031 212.230469 339.78125 C 212.203125 339.832031 212.1875 339.886719 212.171875 339.945312 C 212.144531 340.003906 212.128906 340.070312 212.113281 340.140625 C 212.09375 340.199219 212.078125 340.265625 212.058594 340.332031 C 212.050781 340.390625 212.042969 340.449219 212.035156 340.503906 C 212.019531 340.585938 212.007812 340.660156 211.992188 340.738281 C 211.992188 340.789062 211.984375 340.839844 211.984375 340.898438 C 211.976562 340.984375 211.976562 341.058594 211.964844 341.152344 L 211.964844 363.886719 C 204.273438 364.925781 196.65625 365.40625 188.277344 365.40625 C 179.398438 365.40625 171.945312 364.960938 164.585938 363.980469 L 164.585938 341.109375 C 164.585938 341.023438 164.578125 340.949219 164.578125 340.871094 C 164.566406 340.8125 164.5625 340.753906 164.5625 340.703125 C 164.550781 340.621094 164.535156 340.542969 164.519531 340.464844 C 164.507812 340.410156 164.503906 340.355469 164.484375 340.296875 C 164.476562 340.230469 164.449219 340.15625 164.433594 340.085938 C 164.417969 340.027344 164.398438 339.96875 164.382812 339.90625 C 164.355469 339.84375 164.332031 339.78125 164.308594 339.714844 C 164.292969 339.65625 164.265625 339.597656 164.238281 339.539062 C 164.207031 339.480469 164.183594 339.417969 164.15625 339.359375 C 164.121094 339.300781 164.085938 339.242188 164.0625 339.183594 C 164.027344 339.132812 163.996094 339.074219 163.960938 339.023438 C 163.917969 338.964844 163.886719 338.910156 163.851562 338.851562 C 163.808594 338.800781 163.777344 338.753906 163.734375 338.695312 C 163.691406 338.640625 163.65625 338.601562 163.617188 338.546875 C 163.566406 338.5 163.523438 338.449219 163.46875 338.398438 C 163.429688 338.355469 163.386719 338.3125 163.34375 338.269531 C 163.296875 338.21875 163.242188 338.167969 163.183594 338.121094 C 163.144531 338.085938 163.101562 338.042969 163.058594 338.007812 C 163 337.96875 162.9375 337.925781 162.878906 337.882812 C 162.832031 337.847656 162.789062 337.816406 162.738281 337.78125 C 162.679688 337.738281 162.621094 337.703125 162.558594 337.671875 C 162.5 337.636719 162.441406 337.605469 162.390625 337.578125 C 162.332031 337.546875 162.273438 337.519531 162.214844 337.492188 C 162.15625 337.460938 162.089844 337.433594 162.011719 337.410156 C 161.960938 337.382812 161.910156 337.367188 161.863281 337.351562 C 161.78125 337.324219 161.707031 337.296875 161.625 337.273438 C 161.570312 337.265625 161.53125 337.25 161.480469 337.242188 C 161.398438 337.214844 161.3125 337.199219 161.21875 337.183594 C 161.203125 337.183594 161.175781 337.171875 161.148438 337.171875 C 138.597656 333.625 119.484375 325.792969 100.992188 312.527344 C 100.976562 312.511719 100.949219 312.503906 100.921875 312.488281 C 100.804688 312.402344 100.671875 312.335938 100.542969 312.265625 C 100.433594 312.207031 100.328125 312.140625 100.214844 312.089844 C 100.089844 312.039062 99.96875 312.003906 99.84375 311.972656 C 99.710938 311.929688 99.582031 311.875 99.445312 311.855469 C 99.347656 311.828125 99.234375 311.828125 99.125 311.8125 C 98.976562 311.792969 98.824219 311.769531 98.660156 311.769531 C 98.570312 311.769531 98.46875 311.777344 98.375 311.785156 C 98.214844 311.792969 98.046875 311.800781 97.886719 311.835938 C 97.792969 311.855469 97.707031 311.875 97.617188 311.902344 C 97.453125 311.945312 97.296875 311.988281 97.136719 312.046875 C 97.050781 312.082031 96.972656 312.125 96.890625 312.164062 C 96.738281 312.238281 96.578125 312.316406 96.425781 312.410156 C 96.351562 312.460938 96.28125 312.519531 96.214844 312.570312 C 96.070312 312.683594 95.929688 312.789062 95.792969 312.917969 C 95.785156 312.925781 95.761719 312.941406 95.742188 312.960938 L 79.976562 328.742188 C 67.164062 319.050781 56.152344 308.042969 46.453125 295.226562 L 62.25 279.402344 C 62.269531 279.386719 62.277344 279.367188 62.292969 279.351562 C 62.414062 279.234375 62.503906 279.105469 62.609375 278.972656 C 62.671875 278.890625 62.742188 278.804688 62.800781 278.71875 C 62.882812 278.589844 62.945312 278.457031 63.011719 278.332031 C 63.0625 278.21875 63.121094 278.121094 63.164062 278.007812 C 63.214844 277.882812 63.242188 277.746094 63.285156 277.621094 C 63.316406 277.492188 63.359375 277.375 63.375 277.25 C 63.402344 277.125 63.410156 276.988281 63.417969 276.851562 C 63.425781 276.722656 63.441406 276.605469 63.441406 276.480469 C 63.441406 276.34375 63.417969 276.210938 63.402344 276.074219 C 63.390625 275.949219 63.382812 275.820312 63.359375 275.699219 C 63.332031 275.566406 63.285156 275.449219 63.246094 275.320312 C 63.207031 275.195312 63.171875 275.0625 63.121094 274.941406 C 63.074219 274.824219 63.003906 274.714844 62.945312 274.605469 C 62.878906 274.476562 62.808594 274.351562 62.734375 274.230469 C 62.714844 274.207031 62.710938 274.183594 62.691406 274.167969 C 50.015625 256.355469 42.199219 237.195312 38.082031 213.871094 C 38.082031 213.851562 38.074219 213.835938 38.074219 213.816406 C 38.054688 213.742188 38.039062 213.664062 38.011719 213.589844 C 38.003906 213.53125 37.988281 213.480469 37.96875 213.421875 C 37.953125 213.355469 37.925781 213.277344 37.90625 213.210938 C 37.878906 213.148438 37.863281 213.089844 37.835938 213.03125 C 37.8125 212.972656 37.785156 212.914062 37.753906 212.855469 C 37.726562 212.796875 37.699219 212.726562 37.667969 212.667969 C 37.640625 212.617188 37.609375 212.570312 37.582031 212.515625 C 37.542969 212.457031 37.503906 212.390625 37.464844 212.332031 C 37.429688 212.28125 37.398438 212.238281 37.371094 212.195312 C 37.320312 212.136719 37.277344 212.070312 37.230469 212.011719 C 37.195312 211.96875 37.152344 211.925781 37.121094 211.882812 C 37.066406 211.832031 37.027344 211.773438 36.976562 211.726562 C 36.925781 211.683594 36.871094 211.628906 36.832031 211.589844 C 36.78125 211.546875 36.738281 211.503906 36.6875 211.460938 C 36.628906 211.410156 36.570312 211.367188 36.511719 211.324219 C 36.46875 211.292969 36.425781 211.257812 36.386719 211.226562 C 36.316406 211.183594 36.238281 211.140625 36.171875 211.097656 C 36.132812 211.070312 36.097656 211.046875 36.054688 211.023438 C 35.980469 210.980469 35.902344 210.945312 35.828125 210.902344 C 35.785156 210.886719 35.742188 210.871094 35.703125 210.84375 C 35.625 210.820312 35.550781 210.785156 35.472656 210.761719 C 35.433594 210.746094 35.378906 210.726562 35.328125 210.707031 C 35.261719 210.683594 35.195312 210.667969 35.128906 210.648438 C 35.058594 210.632812 35 210.617188 34.933594 210.597656 C 34.875 210.59375 34.816406 210.582031 34.761719 210.566406 C 34.679688 210.554688 34.605469 210.539062 34.527344 210.535156 C 34.476562 210.535156 34.425781 210.523438 34.378906 210.523438 C 34.292969 210.511719 34.207031 210.507812 34.113281 210.507812 L 9.714844 210.507812 C 8.683594 202.777344 8.195312 195.15625 8.195312 186.792969 C 8.195312 178.207031 8.660156 170.75 9.664062 163.078125 L 33.886719 163.078125 C 33.894531 163.078125 33.894531 163.078125 33.894531 163.078125 C 33.894531 163.078125 33.894531 163.078125 33.902344 163.078125 C 34.125 163.078125 34.339844 163.050781 34.550781 163.019531 C 34.578125 163.019531 34.609375 163.011719 34.636719 163.011719 C 34.847656 162.96875 35.050781 162.914062 35.242188 162.839844 C 35.269531 162.832031 35.304688 162.824219 35.328125 162.816406 C 35.523438 162.742188 35.71875 162.648438 35.894531 162.546875 C 35.921875 162.535156 35.9375 162.519531 35.953125 162.511719 C 36.140625 162.402344 36.324219 162.277344 36.488281 162.140625 C 36.492188 162.140625 36.492188 162.128906 36.503906 162.128906 C 36.660156 161.996094 36.808594 161.84375 36.949219 161.683594 C 36.96875 161.667969 36.984375 161.648438 37 161.625 C 37.136719 161.472656 37.253906 161.300781 37.355469 161.128906 C 37.378906 161.089844 37.398438 161.066406 37.414062 161.035156 C 37.527344 160.855469 37.609375 160.667969 37.683594 160.46875 C 37.695312 160.441406 37.710938 160.40625 37.714844 160.375 C 37.792969 160.171875 37.851562 159.957031 37.886719 159.746094 C 37.886719 159.730469 37.894531 159.726562 37.894531 159.714844 C 41.929688 136.882812 49.570312 118.039062 61.949219 100.433594 C 62.125 100.179688 62.261719 99.917969 62.371094 99.648438 C 63.765625 98.042969 63.710938 95.636719 62.191406 94.113281 L 46.125 78.03125 C 55.675781 65.441406 66.53125 54.769531 79.9375 44.8125 L 95.800781 60.683594 C 95.820312 60.699219 95.835938 60.710938 95.851562 60.726562 C 96.039062 60.902344 96.222656 61.0625 96.433594 61.199219 C 96.441406 61.210938 96.441406 61.210938 96.453125 61.210938 C 96.644531 61.335938 96.855469 61.445312 97.066406 61.535156 C 97.109375 61.554688 97.152344 61.574219 97.195312 61.589844 C 97.40625 61.671875 97.617188 61.730469 97.835938 61.785156 L 97.984375 61.808594 C 98.214844 61.847656 98.445312 61.875 98.671875 61.875 C 98.679688 61.875 98.679688 61.875 98.679688 61.875 C 98.914062 61.875 99.152344 61.847656 99.386719 61.808594 C 99.457031 61.789062 99.523438 61.773438 99.589844 61.757812 C 99.757812 61.722656 99.921875 61.671875 100.078125 61.613281 C 100.15625 61.589844 100.230469 61.554688 100.316406 61.519531 C 100.46875 61.453125 100.613281 61.367188 100.753906 61.285156 C 100.824219 61.242188 100.898438 61.210938 100.964844 61.15625 C 100.984375 61.148438 101.007812 61.140625 101.023438 61.125 C 119.679688 47.867188 139.351562 39.726562 161.167969 36.210938 C 161.191406 36.210938 161.21875 36.199219 161.234375 36.191406 C 161.320312 36.183594 161.402344 36.167969 161.480469 36.140625 C 161.53125 36.136719 161.589844 36.113281 161.640625 36.097656 C 161.714844 36.082031 161.792969 36.054688 161.867188 36.03125 C 161.917969 36.015625 161.96875 35.988281 162.03125 35.972656 C 162.09375 35.945312 162.15625 35.914062 162.222656 35.886719 C 162.285156 35.855469 162.339844 35.828125 162.398438 35.804688 C 162.453125 35.769531 162.511719 35.734375 162.558594 35.710938 C 162.625 35.667969 162.6875 35.632812 162.746094 35.601562 C 162.789062 35.566406 162.835938 35.535156 162.890625 35.5 C 162.949219 35.457031 163.007812 35.414062 163.058594 35.367188 C 163.109375 35.328125 163.152344 35.296875 163.191406 35.253906 C 163.242188 35.203125 163.300781 35.160156 163.355469 35.113281 C 163.394531 35.070312 163.4375 35.027344 163.480469 34.984375 C 163.523438 34.933594 163.574219 34.882812 163.617188 34.824219 C 163.65625 34.78125 163.699219 34.734375 163.734375 34.679688 C 163.777344 34.628906 163.816406 34.570312 163.851562 34.519531 C 163.890625 34.46875 163.929688 34.410156 163.960938 34.359375 C 163.996094 34.300781 164.027344 34.25 164.0625 34.191406 C 164.097656 34.132812 164.121094 34.074219 164.15625 34.011719 C 164.183594 33.953125 164.214844 33.894531 164.238281 33.835938 C 164.265625 33.777344 164.292969 33.714844 164.3125 33.65625 C 164.339844 33.601562 164.355469 33.53125 164.382812 33.464844 C 164.398438 33.40625 164.417969 33.351562 164.433594 33.292969 C 164.460938 33.21875 164.476562 33.152344 164.492188 33.074219 C 164.503906 33.015625 164.507812 32.96875 164.519531 32.914062 C 164.535156 32.832031 164.550781 32.753906 164.5625 32.667969 C 164.566406 32.621094 164.566406 32.566406 164.578125 32.507812 C 164.578125 32.433594 164.585938 32.351562 164.585938 32.265625 L 164.585938 9.714844 C 172.25 8.640625 179.53125 8.175781 188.277344 8.175781 C 197.433594 8.175781 204.378906 8.617188 211.964844 9.699219 L 211.964844 32.507812 C 211.964844 32.535156 211.976562 32.550781 211.976562 32.578125 C 211.976562 32.652344 211.976562 32.730469 211.984375 32.804688 C 211.984375 32.863281 211.992188 32.925781 212 32.984375 C 212.007812 33.058594 212.019531 33.125 212.035156 33.203125 C 212.042969 33.261719 212.050781 33.328125 212.070312 33.390625 C 212.078125 33.457031 212.101562 33.515625 212.117188 33.574219 C 212.132812 33.640625 212.152344 33.710938 212.171875 33.777344 C 212.195312 33.835938 212.210938 33.886719 212.230469 33.9375 C 212.261719 34.011719 212.289062 34.078125 212.3125 34.148438 C 212.339844 34.199219 212.363281 34.25 212.386719 34.289062 C 212.421875 34.367188 212.457031 34.433594 212.492188 34.5 C 212.515625 34.542969 212.550781 34.597656 212.578125 34.636719 C 212.617188 34.707031 212.660156 34.773438 212.703125 34.832031 C 212.734375 34.875 212.765625 34.925781 212.804688 34.964844 C 212.84375 35.027344 212.886719 35.085938 212.9375 35.136719 C 212.972656 35.1875 213.015625 35.230469 213.054688 35.28125 C 213.105469 35.324219 213.148438 35.371094 213.199219 35.421875 C 213.242188 35.464844 213.292969 35.507812 213.34375 35.558594 C 213.394531 35.601562 213.4375 35.644531 213.484375 35.675781 C 213.546875 35.71875 213.59375 35.761719 213.648438 35.804688 C 213.707031 35.839844 213.757812 35.882812 213.804688 35.914062 C 213.859375 35.945312 213.917969 35.980469 213.976562 36.015625 C 214.035156 36.050781 214.09375 36.082031 214.152344 36.113281 C 214.203125 36.140625 214.253906 36.167969 214.304688 36.191406 C 214.378906 36.226562 214.449219 36.261719 214.523438 36.285156 C 214.566406 36.304688 214.617188 36.320312 214.660156 36.335938 C 214.742188 36.371094 214.828125 36.394531 214.914062 36.421875 C 214.953125 36.429688 214.996094 36.4375 215.039062 36.457031 C 215.132812 36.472656 215.21875 36.496094 215.308594 36.515625 C 215.324219 36.515625 215.34375 36.519531 215.359375 36.519531 C 238.503906 40.433594 257.671875 48.207031 275.679688 60.976562 C 275.695312 60.988281 275.71875 61.003906 275.746094 61.015625 C 275.804688 61.0625 275.875 61.097656 275.941406 61.132812 C 276.09375 61.226562 276.238281 61.308594 276.394531 61.378906 C 276.472656 61.410156 276.546875 61.4375 276.625 61.46875 C 276.785156 61.53125 276.953125 61.574219 277.113281 61.613281 C 277.179688 61.632812 277.25 61.648438 277.324219 61.65625 C 277.554688 61.699219 277.789062 61.722656 278.023438 61.722656 C 278.035156 61.722656 278.035156 61.722656 278.035156 61.722656 C 278.273438 61.722656 278.488281 61.699219 278.714844 61.664062 L 278.867188 61.636719 C 279.089844 61.589844 279.300781 61.53125 279.511719 61.445312 C 279.554688 61.425781 279.597656 61.410156 279.636719 61.382812 C 279.847656 61.300781 280.058594 61.191406 280.253906 61.0625 C 280.261719 61.0625 280.269531 61.058594 280.269531 61.058594 C 280.480469 60.914062 280.667969 60.75 280.851562 60.582031 C 280.871094 60.566406 280.886719 60.550781 280.914062 60.53125 L 297.03125 44.386719 C 308.535156 53.234375 319.070312 64.257812 329.789062 78.679688 L 314.367188 94.113281 C 314.351562 94.132812 314.34375 94.148438 314.324219 94.164062 C 314.21875 94.273438 314.132812 94.390625 314.046875 94.511719 C 313.96875 94.613281 313.886719 94.707031 313.816406 94.808594 C 313.742188 94.917969 313.691406 95.042969 313.632812 95.160156 C 313.574219 95.28125 313.507812 95.398438 313.457031 95.515625 C 313.414062 95.636719 313.390625 95.75 313.355469 95.863281 C 313.3125 96 313.269531 96.132812 313.246094 96.269531 C 313.226562 96.394531 313.222656 96.515625 313.210938 96.640625 C 313.203125 96.773438 313.179688 96.910156 313.183594 97.046875 C 313.183594 97.175781 313.203125 97.300781 313.222656 97.433594 C 313.238281 97.558594 313.246094 97.695312 313.269531 97.824219 C 313.296875 97.941406 313.335938 98.058594 313.371094 98.175781 C 313.414062 98.3125 313.449219 98.449219 313.507812 98.582031 C 313.546875 98.6875 313.617188 98.785156 313.667969 98.886719 C 313.742188 99.03125 313.8125 99.167969 313.902344 99.292969 C 313.910156 99.320312 313.921875 99.335938 313.9375 99.351562 C 327.382812 118.226562 335.261719 137.386719 338.726562 159.632812 C 338.730469 159.648438 338.730469 159.664062 338.742188 159.691406 C 338.773438 159.902344 338.828125 160.113281 338.894531 160.316406 C 338.910156 160.347656 338.917969 160.382812 338.9375 160.417969 C 339.003906 160.613281 339.097656 160.804688 339.195312 160.992188 C 339.214844 161.015625 339.230469 161.042969 339.238281 161.066406 C 339.347656 161.253906 339.476562 161.4375 339.613281 161.597656 C 339.617188 161.609375 339.628906 161.617188 339.628906 161.625 C 339.769531 161.785156 339.921875 161.9375 340.082031 162.082031 L 340.125 162.125 C 340.292969 162.257812 340.460938 162.382812 340.652344 162.492188 C 340.671875 162.503906 340.699219 162.519531 340.714844 162.535156 C 340.902344 162.636719 341.089844 162.730469 341.289062 162.808594 C 341.316406 162.816406 341.347656 162.824219 341.375 162.839844 C 341.578125 162.910156 341.78125 162.96875 341.992188 163.011719 C 342.015625 163.011719 342.042969 163.019531 342.074219 163.019531 C 342.285156 163.050781 342.507812 163.078125 342.734375 163.078125 L 365.226562 163.078125 C 366.257812 170.765625 366.71875 178.21875 366.71875 186.792969 C 366.71875 195.511719 366.257812 202.980469 365.234375 210.507812 Z M 372.777344 158.386719 C 372.769531 158.363281 372.769531 158.339844 372.761719 158.3125 C 372.746094 158.230469 372.730469 158.144531 372.710938 158.058594 C 372.695312 158.007812 372.6875 157.960938 372.667969 157.90625 C 372.652344 157.832031 372.625 157.746094 372.601562 157.671875 C 372.578125 157.617188 372.558594 157.570312 372.542969 157.519531 C 372.519531 157.449219 372.484375 157.375 372.453125 157.308594 C 372.425781 157.257812 372.398438 157.195312 372.375 157.148438 C 372.339844 157.085938 372.304688 157.027344 372.273438 156.96875 C 372.242188 156.910156 372.203125 156.851562 372.171875 156.789062 C 372.136719 156.742188 372.105469 156.699219 372.070312 156.648438 C 372.03125 156.589844 371.988281 156.53125 371.933594 156.46875 C 371.902344 156.429688 371.867188 156.386719 371.835938 156.34375 C 371.78125 156.285156 371.734375 156.226562 371.683594 156.175781 C 371.640625 156.132812 371.609375 156.101562 371.566406 156.066406 C 371.503906 156.003906 371.457031 155.957031 371.398438 155.90625 C 371.355469 155.871094 371.3125 155.835938 371.269531 155.804688 C 371.207031 155.761719 371.148438 155.710938 371.082031 155.667969 C 371.039062 155.636719 370.996094 155.609375 370.957031 155.582031 C 370.890625 155.542969 370.824219 155.5 370.746094 155.457031 C 370.703125 155.429688 370.660156 155.40625 370.617188 155.386719 C 370.542969 155.347656 370.46875 155.3125 370.390625 155.28125 C 370.347656 155.261719 370.316406 155.246094 370.273438 155.230469 C 370.191406 155.195312 370.105469 155.160156 370.019531 155.136719 C 369.980469 155.121094 369.941406 155.109375 369.902344 155.101562 C 369.808594 155.078125 369.714844 155.050781 369.621094 155.023438 C 369.589844 155.019531 369.558594 155.019531 369.519531 155.007812 C 369.421875 154.992188 369.328125 154.976562 369.226562 154.960938 C 369.183594 154.960938 369.152344 154.949219 369.117188 154.949219 C 369.015625 154.941406 368.925781 154.941406 368.820312 154.933594 L 346.1875 154.933594 C 342.453125 133.941406 334.867188 115.511719 322.527344 97.46875 L 338.007812 81.96875 C 338.03125 81.949219 338.042969 81.925781 338.066406 81.90625 C 338.167969 81.789062 338.261719 81.671875 338.351562 81.542969 C 338.429688 81.449219 338.503906 81.367188 338.5625 81.265625 C 338.640625 81.144531 338.699219 81.019531 338.757812 80.890625 C 338.816406 80.78125 338.878906 80.664062 338.925781 80.554688 C 338.96875 80.429688 339.003906 80.308594 339.039062 80.183594 C 339.070312 80.054688 339.113281 79.929688 339.136719 79.796875 C 339.152344 79.667969 339.164062 79.542969 339.171875 79.414062 C 339.179688 79.289062 339.195312 79.152344 339.195312 79.027344 C 339.195312 78.890625 339.171875 78.761719 339.152344 78.628906 C 339.148438 78.503906 339.136719 78.375 339.113281 78.246094 C 339.078125 78.121094 339.039062 77.992188 338.996094 77.875 C 338.960938 77.742188 338.917969 77.613281 338.867188 77.488281 C 338.816406 77.371094 338.75 77.269531 338.691406 77.160156 C 338.625 77.023438 338.558594 76.898438 338.472656 76.78125 C 338.453125 76.753906 338.445312 76.726562 338.429688 76.703125 C 325.617188 58.984375 313.101562 45.964844 299.046875 35.71875 C 299.023438 35.703125 298.988281 35.6875 298.964844 35.667969 C 298.847656 35.59375 298.726562 35.523438 298.609375 35.457031 C 298.492188 35.398438 298.375 35.328125 298.257812 35.269531 C 298.136719 35.222656 298.007812 35.1875 297.894531 35.15625 C 297.757812 35.113281 297.628906 35.058594 297.496094 35.035156 C 297.375 35.007812 297.261719 35 297.144531 34.984375 C 296.996094 34.964844 296.863281 34.949219 296.71875 34.945312 C 296.601562 34.945312 296.484375 34.960938 296.363281 34.964844 C 296.222656 34.976562 296.085938 34.984375 295.941406 35.007812 C 295.824219 35.027344 295.714844 35.070312 295.597656 35.09375 C 295.460938 35.136719 295.324219 35.171875 295.191406 35.222656 C 295.082031 35.265625 294.980469 35.3125 294.882812 35.367188 C 294.746094 35.433594 294.609375 35.5 294.480469 35.578125 C 294.390625 35.632812 294.308594 35.703125 294.222656 35.769531 C 294.085938 35.871094 293.960938 35.964844 293.84375 36.082031 C 293.824219 36.097656 293.800781 36.113281 293.773438 36.136719 L 277.542969 52.378906 C 260.402344 40.796875 241.546875 33.160156 220.113281 29.113281 L 220.113281 6.210938 C 220.113281 6.183594 220.101562 6.160156 220.101562 6.132812 C 220.101562 6.058594 220.097656 5.972656 220.097656 5.894531 C 220.085938 5.835938 220.085938 5.777344 220.078125 5.726562 C 220.070312 5.652344 220.054688 5.574219 220.042969 5.5 C 220.035156 5.441406 220.015625 5.382812 220.011719 5.320312 C 219.992188 5.253906 219.976562 5.1875 219.960938 5.121094 C 219.941406 5.0625 219.917969 4.992188 219.902344 4.933594 C 219.886719 4.875 219.859375 4.816406 219.84375 4.757812 C 219.804688 4.6875 219.78125 4.621094 219.757812 4.554688 C 219.730469 4.503906 219.707031 4.453125 219.679688 4.402344 C 219.648438 4.335938 219.613281 4.265625 219.578125 4.207031 C 219.554688 4.15625 219.519531 4.105469 219.496094 4.0625 C 219.453125 3.996094 219.410156 3.9375 219.367188 3.875 C 219.335938 3.828125 219.300781 3.785156 219.269531 3.734375 C 219.226562 3.675781 219.183594 3.625 219.132812 3.566406 C 219.097656 3.523438 219.046875 3.472656 219.003906 3.429688 C 218.960938 3.378906 218.921875 3.339844 218.871094 3.285156 C 218.820312 3.242188 218.769531 3.191406 218.71875 3.148438 C 218.675781 3.105469 218.625 3.066406 218.582031 3.03125 C 218.523438 2.992188 218.472656 2.949219 218.414062 2.90625 C 218.367188 2.875 218.3125 2.832031 218.261719 2.796875 C 218.203125 2.765625 218.144531 2.726562 218.09375 2.695312 C 218.035156 2.660156 217.976562 2.628906 217.917969 2.59375 C 217.867188 2.570312 217.808594 2.542969 217.75 2.515625 C 217.679688 2.484375 217.613281 2.457031 217.542969 2.425781 C 217.496094 2.40625 217.445312 2.390625 217.394531 2.363281 C 217.316406 2.339844 217.242188 2.316406 217.160156 2.300781 C 217.105469 2.28125 217.054688 2.261719 217.007812 2.257812 C 216.929688 2.238281 216.84375 2.214844 216.761719 2.207031 C 216.742188 2.195312 216.71875 2.1875 216.695312 2.1875 C 207.230469 0.632812 199.265625 0.0351562 188.277344 0.0351562 C 177.785156 0.0351562 169.296875 0.675781 159.875 2.1875 C 159.851562 2.1875 159.832031 2.195312 159.808594 2.195312 C 159.726562 2.214844 159.640625 2.230469 159.558594 2.257812 C 159.503906 2.261719 159.453125 2.273438 159.40625 2.289062 C 159.328125 2.316406 159.25 2.339844 159.175781 2.363281 C 159.125 2.382812 159.066406 2.398438 159.015625 2.425781 C 158.945312 2.449219 158.882812 2.484375 158.8125 2.511719 C 158.761719 2.53125 158.703125 2.558594 158.644531 2.59375 C 158.585938 2.617188 158.535156 2.652344 158.476562 2.683594 C 158.417969 2.722656 158.355469 2.753906 158.296875 2.796875 C 158.25 2.832031 158.207031 2.863281 158.15625 2.894531 C 158.097656 2.9375 158.035156 2.980469 157.984375 3.023438 C 157.933594 3.066406 157.890625 3.101562 157.84375 3.144531 C 157.792969 3.1875 157.742188 3.234375 157.691406 3.285156 C 157.648438 3.328125 157.605469 3.371094 157.5625 3.414062 C 157.511719 3.464844 157.46875 3.511719 157.429688 3.566406 C 157.386719 3.617188 157.34375 3.664062 157.300781 3.722656 C 157.257812 3.765625 157.226562 3.820312 157.191406 3.871094 C 157.148438 3.929688 157.105469 3.988281 157.074219 4.046875 C 157.042969 4.097656 157.015625 4.148438 156.980469 4.199219 C 156.949219 4.257812 156.914062 4.324219 156.878906 4.394531 C 156.851562 4.445312 156.832031 4.492188 156.804688 4.546875 C 156.777344 4.613281 156.753906 4.679688 156.71875 4.746094 C 156.703125 4.808594 156.679688 4.867188 156.664062 4.914062 C 156.640625 4.984375 156.621094 5.050781 156.601562 5.121094 C 156.585938 5.179688 156.566406 5.246094 156.550781 5.316406 C 156.542969 5.375 156.527344 5.429688 156.515625 5.5 C 156.5 5.566406 156.492188 5.640625 156.484375 5.710938 C 156.472656 5.769531 156.472656 5.835938 156.46875 5.894531 C 156.457031 5.972656 156.457031 6.046875 156.457031 6.125 C 156.457031 6.148438 156.453125 6.175781 156.453125 6.210938 L 156.453125 28.765625 C 135.828125 32.5625 117.019531 40.359375 99.152344 52.523438 L 83.234375 36.582031 C 83.210938 36.5625 83.191406 36.546875 83.175781 36.53125 C 83.058594 36.421875 82.929688 36.328125 82.804688 36.226562 C 82.710938 36.167969 82.625 36.09375 82.542969 36.03125 C 82.410156 35.945312 82.257812 35.882812 82.113281 35.804688 C 82.019531 35.761719 81.933594 35.710938 81.835938 35.667969 C 81.683594 35.609375 81.519531 35.566406 81.351562 35.523438 C 81.265625 35.507812 81.183594 35.476562 81.089844 35.457031 C 80.914062 35.421875 80.726562 35.414062 80.550781 35.40625 C 80.472656 35.398438 80.398438 35.390625 80.320312 35.390625 C 80.136719 35.390625 79.953125 35.414062 79.773438 35.441406 C 79.699219 35.457031 79.613281 35.457031 79.535156 35.476562 C 79.378906 35.507812 79.226562 35.558594 79.066406 35.609375 C 78.972656 35.644531 78.871094 35.667969 78.769531 35.710938 C 78.648438 35.761719 78.535156 35.839844 78.414062 35.898438 C 78.296875 35.964844 78.171875 36.03125 78.042969 36.113281 C 78.027344 36.125 78 36.136719 77.984375 36.152344 C 61.714844 47.828125 48.941406 60.34375 37.8125 75.5625 C 37.179688 76.417969 36.949219 77.4375 37.0625 78.425781 C 36.96875 79.574219 37.335938 80.757812 38.222656 81.636719 L 54.082031 97.515625 C 42.320312 114.742188 34.761719 133.117188 30.519531 154.933594 L 7.773438 154.933594 C 7.488281 154.933594 7.207031 154.964844 6.9375 155.019531 C 6.871094 155.007812 6.8125 154.992188 6.742188 154.976562 C 4.535156 154.644531 2.449219 156.167969 2.109375 158.398438 C 0.695312 167.742188 0.0625 176.503906 0.0625 186.792969 C 0.0625 196.820312 0.726562 205.84375 2.160156 215.195312 C 2.472656 217.214844 4.203125 218.652344 6.179688 218.652344 C 6.378906 218.652344 6.589844 218.636719 6.800781 218.609375 C 6.871094 218.59375 6.929688 218.582031 6.988281 218.566406 C 7.257812 218.625 7.539062 218.652344 7.824219 218.652344 L 30.699219 218.652344 C 34.949219 240.5 42.445312 258.898438 54.097656 276.046875 L 38.214844 291.949219 C 38.191406 291.972656 38.179688 292 38.160156 292.015625 C 38.054688 292.136719 37.964844 292.25 37.871094 292.371094 C 37.792969 292.460938 37.714844 292.558594 37.660156 292.65625 C 37.582031 292.777344 37.527344 292.90625 37.464844 293.03125 C 37.40625 293.140625 37.347656 293.257812 37.292969 293.375 C 37.253906 293.496094 37.230469 293.621094 37.1875 293.738281 C 37.152344 293.863281 37.109375 293.992188 37.09375 294.128906 C 37.066406 294.253906 37.066406 294.382812 37.050781 294.507812 C 37.042969 294.644531 37.027344 294.769531 37.035156 294.902344 C 37.035156 295.03125 37.050781 295.160156 37.066406 295.292969 C 37.082031 295.417969 37.09375 295.546875 37.121094 295.671875 C 37.144531 295.800781 37.1875 295.925781 37.230469 296.046875 C 37.273438 296.179688 37.304688 296.308594 37.363281 296.433594 C 37.40625 296.554688 37.472656 296.652344 37.53125 296.765625 C 37.609375 296.898438 37.667969 297.027344 37.753906 297.144531 C 37.777344 297.167969 37.785156 297.203125 37.800781 297.226562 C 49.1875 312.882812 62.328125 326.019531 77.984375 337.398438 C 78.011719 337.417969 78.042969 337.433594 78.070312 337.453125 C 78.144531 337.503906 78.222656 337.546875 78.296875 337.585938 C 78.433594 337.671875 78.574219 337.757812 78.730469 337.816406 C 78.804688 337.847656 78.878906 337.882812 78.964844 337.914062 C 79.125 337.972656 79.28125 338.015625 79.453125 338.058594 C 79.519531 338.078125 79.589844 338.09375 79.65625 338.109375 C 79.894531 338.152344 80.125 338.179688 80.375 338.179688 C 80.375 338.179688 80.375 338.179688 80.378906 338.179688 C 80.609375 338.179688 80.839844 338.152344 81.066406 338.109375 C 81.105469 338.101562 81.160156 338.09375 81.207031 338.085938 C 81.429688 338.042969 81.640625 337.972656 81.851562 337.898438 C 81.894531 337.882812 81.933594 337.855469 81.976562 337.839844 C 82.425781 337.644531 82.835938 337.375 83.191406 337.03125 C 83.210938 337.011719 83.234375 337.003906 83.253906 336.988281 L 99.09375 321.128906 C 116.628906 333.148438 135.460938 340.863281 156.453125 344.625 L 156.453125 367.511719 C 156.453125 367.535156 156.457031 367.570312 156.457031 367.601562 C 156.457031 367.671875 156.457031 367.746094 156.46875 367.8125 C 156.472656 367.882812 156.472656 367.949219 156.484375 368.007812 C 156.492188 368.078125 156.507812 368.144531 156.515625 368.210938 C 156.527344 368.277344 156.542969 368.34375 156.558594 368.414062 C 156.566406 368.472656 156.585938 368.535156 156.601562 368.59375 C 156.621094 368.667969 156.640625 368.734375 156.667969 368.804688 C 156.683594 368.863281 156.703125 368.914062 156.71875 368.960938 C 156.753906 369.03125 156.777344 369.109375 156.8125 369.171875 C 156.832031 369.226562 156.851562 369.265625 156.878906 369.320312 C 156.914062 369.382812 156.949219 369.460938 156.988281 369.53125 C 157.015625 369.574219 157.042969 369.613281 157.074219 369.664062 C 157.117188 369.726562 157.148438 369.789062 157.199219 369.851562 C 157.234375 369.898438 157.269531 369.941406 157.300781 369.984375 C 157.34375 370.042969 157.386719 370.105469 157.4375 370.152344 C 157.46875 370.207031 157.511719 370.246094 157.554688 370.289062 C 157.605469 370.339844 157.648438 370.390625 157.699219 370.433594 C 157.75 370.484375 157.792969 370.527344 157.84375 370.570312 C 157.890625 370.613281 157.945312 370.652344 157.996094 370.695312 C 158.042969 370.738281 158.097656 370.769531 158.15625 370.8125 C 158.207031 370.847656 158.253906 370.890625 158.3125 370.921875 C 158.367188 370.957031 158.425781 370.992188 158.476562 371.023438 C 158.535156 371.058594 158.59375 371.089844 158.660156 371.128906 C 158.714844 371.148438 158.761719 371.175781 158.820312 371.203125 C 158.886719 371.234375 158.957031 371.261719 159.03125 371.296875 C 159.074219 371.3125 159.125 371.328125 159.175781 371.34375 C 159.261719 371.378906 159.335938 371.40625 159.421875 371.421875 C 159.460938 371.4375 159.515625 371.449219 159.5625 371.464844 C 159.648438 371.480469 159.730469 371.496094 159.816406 371.511719 C 159.84375 371.523438 159.867188 371.523438 159.894531 371.53125 C 168.824219 372.9375 177.574219 373.550781 188.277344 373.550781 C 198.328125 373.550781 207.351562 372.882812 216.660156 371.4375 C 216.695312 371.4375 216.71875 371.429688 216.742188 371.421875 C 216.828125 371.414062 216.90625 371.398438 216.980469 371.378906 C 217.03125 371.363281 217.089844 371.34375 217.148438 371.328125 C 217.21875 371.3125 217.292969 371.285156 217.359375 371.269531 C 217.417969 371.246094 217.480469 371.226562 217.539062 371.203125 C 217.597656 371.175781 217.664062 371.148438 217.722656 371.117188 C 217.78125 371.089844 217.851562 371.066406 217.90625 371.035156 C 217.960938 371.007812 218.007812 370.976562 218.070312 370.949219 C 218.128906 370.90625 218.195312 370.875 218.253906 370.832031 C 218.296875 370.796875 218.347656 370.769531 218.386719 370.738281 C 218.457031 370.695312 218.515625 370.644531 218.578125 370.601562 C 218.621094 370.570312 218.660156 370.527344 218.703125 370.492188 C 218.75 370.441406 218.808594 370.390625 218.863281 370.339844 C 218.90625 370.304688 218.945312 370.261719 218.980469 370.222656 C 219.03125 370.171875 219.082031 370.109375 219.132812 370.0625 C 219.167969 370.011719 219.210938 369.96875 219.242188 369.917969 C 219.285156 369.867188 219.328125 369.808594 219.367188 369.757812 C 219.402344 369.707031 219.4375 369.648438 219.46875 369.597656 C 219.503906 369.535156 219.539062 369.488281 219.570312 369.425781 C 219.605469 369.367188 219.636719 369.308594 219.664062 369.25 C 219.699219 369.191406 219.722656 369.132812 219.75 369.082031 C 219.773438 369.015625 219.800781 368.957031 219.824219 368.894531 C 219.847656 368.835938 219.875 368.769531 219.902344 368.703125 C 219.917969 368.640625 219.933594 368.582031 219.949219 368.523438 C 219.96875 368.457031 219.984375 368.386719 220 368.3125 C 220.015625 368.253906 220.027344 368.203125 220.035156 368.144531 C 220.054688 368.066406 220.070312 367.992188 220.078125 367.90625 C 220.078125 367.855469 220.085938 367.796875 220.097656 367.746094 C 220.097656 367.660156 220.101562 367.585938 220.101562 367.5 C 220.101562 367.476562 220.113281 367.445312 220.113281 367.417969 L 220.113281 344.574219 C 241.503906 340.375 259.820312 332.785156 277.222656 320.882812 L 293.453125 337.121094 C 293.464844 337.140625 293.488281 337.144531 293.503906 337.164062 C 293.679688 337.339844 293.875 337.507812 294.085938 337.644531 C 294.289062 337.78125 294.5 337.890625 294.71875 337.984375 C 294.769531 338 294.804688 338.015625 294.855469 338.035156 C 295.054688 338.121094 295.277344 338.179688 295.496094 338.226562 C 295.535156 338.238281 295.589844 338.246094 295.640625 338.253906 C 295.859375 338.289062 296.085938 338.320312 296.320312 338.320312 L 296.332031 338.320312 C 296.570312 338.320312 296.804688 338.289062 297.039062 338.253906 C 297.109375 338.238281 297.175781 338.21875 297.25 338.203125 C 297.414062 338.160156 297.570312 338.121094 297.742188 338.058594 C 297.820312 338.027344 297.894531 337.992188 297.976562 337.957031 C 298.121094 337.890625 298.273438 337.816406 298.410156 337.730469 C 298.484375 337.6875 298.558594 337.644531 298.625 337.59375 C 298.664062 337.578125 298.695312 337.5625 298.71875 337.535156 C 314.039062 326.382812 327.136719 313.195312 338.75 297.226562 C 338.773438 297.203125 338.785156 297.179688 338.800781 297.152344 C 338.886719 297.027344 338.960938 296.890625 339.027344 296.753906 C 339.089844 296.652344 339.148438 296.554688 339.195312 296.441406 C 339.257812 296.308594 339.289062 296.171875 339.332031 296.035156 C 339.363281 295.921875 339.417969 295.800781 339.441406 295.683594 C 339.46875 295.546875 339.476562 295.414062 339.492188 295.285156 C 339.511719 295.160156 339.527344 295.03125 339.527344 294.902344 C 339.527344 294.769531 339.519531 294.632812 339.5 294.507812 C 339.492188 294.382812 339.492188 294.253906 339.46875 294.128906 C 339.441406 294 339.40625 293.875 339.363281 293.738281 C 339.332031 293.621094 339.308594 293.496094 339.257812 293.375 C 339.214844 293.257812 339.152344 293.148438 339.097656 293.03125 C 339.039062 292.90625 338.980469 292.777344 338.902344 292.65625 C 338.84375 292.558594 338.757812 292.472656 338.691406 292.378906 C 338.597656 292.25 338.503906 292.136719 338.394531 292.015625 C 338.378906 292 338.363281 291.972656 338.347656 291.949219 L 322.234375 275.828125 C 335.03125 257.199219 342.523438 239.308594 346.1875 218.652344 L 368.753906 218.652344 C 368.761719 218.652344 368.761719 218.652344 368.761719 218.652344 L 368.769531 218.652344 C 369 218.652344 369.21875 218.625 369.429688 218.59375 C 369.460938 218.59375 369.488281 218.582031 369.515625 218.582031 C 369.726562 218.539062 369.925781 218.484375 370.128906 218.414062 C 370.152344 218.398438 370.191406 218.386719 370.214844 218.382812 C 370.417969 218.304688 370.601562 218.210938 370.78125 218.109375 C 370.804688 218.09375 370.828125 218.078125 370.855469 218.0625 C 371.039062 217.949219 371.207031 217.828125 371.378906 217.695312 C 371.386719 217.679688 371.402344 217.671875 371.417969 217.65625 C 371.582031 217.511719 371.734375 217.367188 371.867188 217.195312 L 371.894531 217.171875 C 372.03125 217.011719 372.15625 216.828125 372.265625 216.636719 C 372.273438 216.617188 372.289062 216.597656 372.304688 216.574219 C 372.410156 216.378906 372.5 216.183594 372.578125 215.980469 C 372.585938 215.957031 372.59375 215.929688 372.601562 215.894531 C 372.679688 215.695312 372.730469 215.472656 372.761719 215.253906 C 372.769531 215.238281 372.769531 215.21875 372.777344 215.210938 C 374.199219 206.164062 374.855469 197.132812 374.855469 186.792969 C 374.855469 176.507812 374.214844 167.757812 372.777344 158.386719 Z M 260.78125 259.929688 C 260.316406 260.386719 259.855469 260.832031 259.390625 261.28125 C 257.210938 231.632812 236.425781 207.085938 208.703125 199.3125 C 221.941406 191.851562 230.914062 177.652344 230.914062 161.386719 L 230.914062 151.714844 C 230.914062 127.730469 211.417969 108.214844 187.457031 108.214844 C 163.496094 108.214844 144.003906 127.730469 144.003906 151.714844 L 144.003906 161.386719 C 144.003906 177.652344 152.972656 191.851562 166.214844 199.3125 C 138.996094 206.941406 118.472656 230.738281 115.667969 259.667969 C 115.566406 259.566406 115.464844 259.472656 115.363281 259.371094 C 95.929688 239.914062 85.292969 214.148438 85.421875 186.808594 C 85.691406 130.027344 131.832031 83.832031 188.277344 83.832031 C 244.992188 83.832031 291.132812 130.019531 291.132812 186.792969 C 291.132812 214.445312 280.355469 240.421875 260.78125 259.929688 Z M 152.144531 161.386719 L 152.144531 151.714844 C 152.144531 132.226562 167.988281 116.367188 187.457031 116.367188 C 206.929688 116.367188 222.769531 132.226562 222.769531 151.714844 L 222.769531 161.386719 C 222.769531 180.886719 206.929688 196.746094 187.457031 196.746094 C 167.988281 196.746094 152.144531 180.886719 152.144531 161.386719 Z M 188.300781 289.753906 C 164.382812 289.640625 141.738281 281.515625 123.460938 266.671875 C 123.464844 266.597656 123.476562 266.519531 123.476562 266.445312 C 123.476562 232.5 151.058594 204.890625 184.96875 204.890625 L 189.945312 204.890625 C 223.859375 204.890625 251.4375 232.5 251.4375 266.445312 C 251.4375 266.976562 251.550781 267.488281 251.734375 267.957031 C 233.714844 282.183594 211.695312 289.828125 188.300781 289.753906 Z M 188.277344 75.6875 C 127.355469 75.6875 77.570312 125.515625 77.285156 186.777344 C 77.148438 216.300781 88.625 244.121094 109.609375 265.132812 C 130.582031 286.125 158.519531 297.769531 188.257812 297.902344 L 188.773438 297.902344 C 218.078125 297.902344 245.667969 286.480469 266.523438 265.699219 C 287.648438 244.652344 299.277344 216.632812 299.277344 186.792969 C 299.277344 125.527344 249.480469 75.6875 188.277344 75.6875 Z M 260.78125 259.929688 C 260.316406 260.386719 259.855469 260.832031 259.390625 261.28125 C 257.210938 231.632812 236.425781 207.085938 208.703125 199.3125 C 221.941406 191.851562 230.914062 177.652344 230.914062 161.386719 L 230.914062 151.714844 C 230.914062 127.730469 211.417969 108.214844 187.457031 108.214844 C 163.496094 108.214844 144.003906 127.730469 144.003906 151.714844 L 144.003906 161.386719 C 144.003906 177.652344 152.972656 191.851562 166.214844 199.3125 C 138.996094 206.941406 118.472656 230.738281 115.667969 259.667969 C 115.566406 259.566406 115.464844 259.472656 115.363281 259.371094 C 95.929688 239.914062 85.292969 214.148438 85.421875 186.808594 C 85.691406 130.027344 131.832031 83.832031 188.277344 83.832031 C 244.992188 83.832031 291.132812 130.019531 291.132812 186.792969 C 291.132812 214.445312 280.355469 240.421875 260.78125 259.929688 Z M 152.144531 161.386719 L 152.144531 151.714844 C 152.144531 132.226562 167.988281 116.367188 187.457031 116.367188 C 206.929688 116.367188 222.769531 132.226562 222.769531 151.714844 L 222.769531 161.386719 C 222.769531 180.886719 206.929688 196.746094 187.457031 196.746094 C 167.988281 196.746094 152.144531 180.886719 152.144531 161.386719 Z M 188.300781 289.753906 C 164.382812 289.640625 141.738281 281.515625 123.460938 266.671875 C 123.464844 266.597656 123.476562 266.519531 123.476562 266.445312 C 123.476562 232.5 151.058594 204.890625 184.96875 204.890625 L 189.945312 204.890625 C 223.859375 204.890625 251.4375 232.5 251.4375 266.445312 C 251.4375 266.976562 251.550781 267.488281 251.734375 267.957031 C 233.714844 282.183594 211.695312 289.828125 188.300781 289.753906 Z M 188.277344 75.6875 C 127.355469 75.6875 77.570312 125.515625 77.285156 186.777344 C 77.148438 216.300781 88.625 244.121094 109.609375 265.132812 C 130.582031 286.125 158.519531 297.769531 188.257812 297.902344 L 188.773438 297.902344 C 218.078125 297.902344 245.667969 286.480469 266.523438 265.699219 C 287.648438 244.652344 299.277344 216.632812 299.277344 186.792969 C 299.277344 125.527344 249.480469 75.6875 188.277344 75.6875 Z M 260.78125 259.929688 C 260.316406 260.386719 259.855469 260.832031 259.390625 261.28125 C 257.210938 231.632812 236.425781 207.085938 208.703125 199.3125 C 221.941406 191.851562 230.914062 177.652344 230.914062 161.386719 L 230.914062 151.714844 C 230.914062 127.730469 211.417969 108.214844 187.457031 108.214844 C 163.496094 108.214844 144.003906 127.730469 144.003906 151.714844 L 144.003906 161.386719 C 144.003906 177.652344 152.972656 191.851562 166.214844 199.3125 C 138.996094 206.941406 118.472656 230.738281 115.667969 259.667969 C 115.566406 259.566406 115.464844 259.472656 115.363281 259.371094 C 95.929688 239.914062 85.292969 214.148438 85.421875 186.808594 C 85.691406 130.027344 131.832031 83.832031 188.277344 83.832031 C 244.992188 83.832031 291.132812 130.019531 291.132812 186.792969 C 291.132812 214.445312 280.355469 240.421875 260.78125 259.929688 Z M 152.144531 161.386719 L 152.144531 151.714844 C 152.144531 132.226562 167.988281 116.367188 187.457031 116.367188 C 206.929688 116.367188 222.769531 132.226562 222.769531 151.714844 L 222.769531 161.386719 C 222.769531 180.886719 206.929688 196.746094 187.457031 196.746094 C 167.988281 196.746094 152.144531 180.886719 152.144531 161.386719 Z M 188.300781 289.753906 C 164.382812 289.640625 141.738281 281.515625 123.460938 266.671875 C 123.464844 266.597656 123.476562 266.519531 123.476562 266.445312 C 123.476562 232.5 151.058594 204.890625 184.96875 204.890625 L 189.945312 204.890625 C 223.859375 204.890625 251.4375 232.5 251.4375 266.445312 C 251.4375 266.976562 251.550781 267.488281 251.734375 267.957031 C 233.714844 282.183594 211.695312 289.828125 188.300781 289.753906 Z M 188.277344 75.6875 C 127.355469 75.6875 77.570312 125.515625 77.285156 186.777344 C 77.148438 216.300781 88.625 244.121094 109.609375 265.132812 C 130.582031 286.125 158.519531 297.769531 188.257812 297.902344 L 188.773438 297.902344 C 218.078125 297.902344 245.667969 286.480469 266.523438 265.699219 C 287.648438 244.652344 299.277344 216.632812 299.277344 186.792969 C 299.277344 125.527344 249.480469 75.6875 188.277344 75.6875 Z M 260.78125 259.929688 C 260.316406 260.386719 259.855469 260.832031 259.390625 261.28125 C 257.210938 231.632812 236.425781 207.085938 208.703125 199.3125 C 221.941406 191.851562 230.914062 177.652344 230.914062 161.386719 L 230.914062 151.714844 C 230.914062 127.730469 211.417969 108.214844 187.457031 108.214844 C 163.496094 108.214844 144.003906 127.730469 144.003906 151.714844 L 144.003906 161.386719 C 144.003906 177.652344 152.972656 191.851562 166.214844 199.3125 C 138.996094 206.941406 118.472656 230.738281 115.667969 259.667969 C 115.566406 259.566406 115.464844 259.472656 115.363281 259.371094 C 95.929688 239.914062 85.292969 214.148438 85.421875 186.808594 C 85.691406 130.027344 131.832031 83.832031 188.277344 83.832031 C 244.992188 83.832031 291.132812 130.019531 291.132812 186.792969 C 291.132812 214.445312 280.355469 240.421875 260.78125 259.929688 Z M 152.144531 161.386719 L 152.144531 151.714844 C 152.144531 132.226562 167.988281 116.367188 187.457031 116.367188 C 206.929688 116.367188 222.769531 132.226562 222.769531 151.714844 L 222.769531 161.386719 C 222.769531 180.886719 206.929688 196.746094 187.457031 196.746094 C 167.988281 196.746094 152.144531 180.886719 152.144531 161.386719 Z M 188.300781 289.753906 C 164.382812 289.640625 141.738281 281.515625 123.460938 266.671875 C 123.464844 266.597656 123.476562 266.519531 123.476562 266.445312 C 123.476562 232.5 151.058594 204.890625 184.96875 204.890625 L 189.945312 204.890625 C 223.859375 204.890625 251.4375 232.5 251.4375 266.445312 C 251.4375 266.976562 251.550781 267.488281 251.734375 267.957031 C 233.714844 282.183594 211.695312 289.828125 188.300781 289.753906 Z M 188.277344 75.6875 C 127.355469 75.6875 77.570312 125.515625 77.285156 186.777344 C 77.148438 216.300781 88.625 244.121094 109.609375 265.132812 C 130.582031 286.125 158.519531 297.769531 188.257812 297.902344 L 188.773438 297.902344 C 218.078125 297.902344 245.667969 286.480469 266.523438 265.699219 C 287.648438 244.652344 299.277344 216.632812 299.277344 186.792969 C 299.277344 125.527344 249.480469 75.6875 188.277344 75.6875 Z M 260.78125 259.929688 C 260.316406 260.386719 259.855469 260.832031 259.390625 261.28125 C 257.210938 231.632812 236.425781 207.085938 208.703125 199.3125 C 221.941406 191.851562 230.914062 177.652344 230.914062 161.386719 L 230.914062 151.714844 C 230.914062 127.730469 211.417969 108.214844 187.457031 108.214844 C 163.496094 108.214844 144.003906 127.730469 144.003906 151.714844 L 144.003906 161.386719 C 144.003906 177.652344 152.972656 191.851562 166.214844 199.3125 C 138.996094 206.941406 118.472656 230.738281 115.667969 259.667969 C 115.566406 259.566406 115.464844 259.472656 115.363281 259.371094 C 95.929688 239.914062 85.292969 214.148438 85.421875 186.808594 C 85.691406 130.027344 131.832031 83.832031 188.277344 83.832031 C 244.992188 83.832031 291.132812 130.019531 291.132812 186.792969 C 291.132812 214.445312 280.355469 240.421875 260.78125 259.929688 Z M 152.144531 161.386719 L 152.144531 151.714844 C 152.144531 132.226562 167.988281 116.367188 187.457031 116.367188 C 206.929688 116.367188 222.769531 132.226562 222.769531 151.714844 L 222.769531 161.386719 C 222.769531 180.886719 206.929688 196.746094 187.457031 196.746094 C 167.988281 196.746094 152.144531 180.886719 152.144531 161.386719 Z M 188.300781 289.753906 C 164.382812 289.640625 141.738281 281.515625 123.460938 266.671875 C 123.464844 266.597656 123.476562 266.519531 123.476562 266.445312 C 123.476562 232.5 151.058594 204.890625 184.96875 204.890625 L 189.945312 204.890625 C 223.859375 204.890625 251.4375 232.5 251.4375 266.445312 C 251.4375 266.976562 251.550781 267.488281 251.734375 267.957031 C 233.714844 282.183594 211.695312 289.828125 188.300781 289.753906 Z M 188.277344 75.6875 C 127.355469 75.6875 77.570312 125.515625 77.285156 186.777344 C 77.148438 216.300781 88.625 244.121094 109.609375 265.132812 C 130.582031 286.125 158.519531 297.769531 188.257812 297.902344 L 188.773438 297.902344 C 218.078125 297.902344 245.667969 286.480469 266.523438 265.699219 C 287.648438 244.652344 299.277344 216.632812 299.277344 186.792969 C 299.277344 125.527344 249.480469 75.6875 188.277344 75.6875 " fill-opacity="1" fill-rule="nonzero"/></g><path fill="#a9b1bc" d="M 266.523438 265.699219 C 245.667969 286.480469 218.078125 297.902344 188.773438 297.902344 L 188.257812 297.902344 C 158.519531 297.769531 130.582031 286.125 109.609375 265.132812 C 88.625 244.121094 77.148438 216.300781 77.285156 186.777344 C 77.570312 125.515625 127.355469 75.6875 188.277344 75.6875 C 249.480469 75.6875 299.277344 125.527344 299.277344 186.792969 C 299.277344 216.632812 287.648438 244.652344 266.523438 265.699219 Z M 365.226562 163.078125 L 342.734375 163.078125 C 342.507812 163.078125 342.285156 163.050781 342.074219 163.019531 C 342.042969 163.019531 342.015625 163.011719 341.992188 163.011719 C 341.78125 162.96875 341.578125 162.910156 341.375 162.839844 C 341.347656 162.824219 341.316406 162.816406 341.289062 162.808594 C 341.089844 162.730469 340.902344 162.636719 340.714844 162.535156 C 340.699219 162.519531 340.671875 162.503906 340.652344 162.492188 C 340.460938 162.382812 340.292969 162.257812 340.125 162.125 L 340.082031 162.082031 C 339.921875 161.9375 339.769531 161.785156 339.628906 161.625 C 339.628906 161.617188 339.617188 161.609375 339.613281 161.597656 C 339.476562 161.4375 339.347656 161.253906 339.238281 161.066406 C 339.230469 161.042969 339.214844 161.015625 339.195312 160.992188 C 339.097656 160.804688 339.003906 160.613281 338.9375 160.417969 C 338.917969 160.382812 338.910156 160.347656 338.894531 160.316406 C 338.828125 160.113281 338.773438 159.902344 338.742188 159.691406 C 338.730469 159.664062 338.730469 159.648438 338.726562 159.632812 C 335.261719 137.386719 327.382812 118.226562 313.9375 99.351562 C 313.921875 99.335938 313.910156 99.320312 313.902344 99.292969 C 313.8125 99.167969 313.742188 99.03125 313.667969 98.886719 C 313.617188 98.785156 313.546875 98.6875 313.507812 98.582031 C 313.449219 98.449219 313.414062 98.3125 313.371094 98.175781 C 313.335938 98.058594 313.296875 97.941406 313.269531 97.824219 C 313.246094 97.695312 313.238281 97.558594 313.222656 97.433594 C 313.203125 97.300781 313.183594 97.175781 313.183594 97.046875 C 313.179688 96.910156 313.203125 96.773438 313.210938 96.640625 C 313.222656 96.515625 313.226562 96.394531 313.246094 96.269531 C 313.269531 96.132812 313.3125 96 313.355469 95.863281 C 313.390625 95.75 313.414062 95.636719 313.457031 95.515625 C 313.507812 95.398438 313.574219 95.28125 313.632812 95.160156 C 313.691406 95.042969 313.742188 94.917969 313.816406 94.808594 C 313.886719 94.707031 313.96875 94.613281 314.046875 94.511719 C 314.132812 94.390625 314.21875 94.273438 314.324219 94.164062 C 314.34375 94.148438 314.351562 94.132812 314.367188 94.113281 L 329.789062 78.679688 C 319.070312 64.257812 308.535156 53.234375 297.03125 44.386719 L 280.914062 60.53125 C 280.886719 60.550781 280.871094 60.566406 280.851562 60.582031 C 280.667969 60.75 280.480469 60.914062 280.269531 61.058594 C 280.269531 61.058594 280.261719 61.0625 280.253906 61.0625 C 280.058594 61.191406 279.847656 61.300781 279.636719 61.382812 C 279.597656 61.410156 279.554688 61.425781 279.511719 61.445312 C 279.300781 61.53125 279.089844 61.589844 278.867188 61.636719 L 278.714844 61.664062 C 278.488281 61.699219 278.273438 61.722656 278.035156 61.722656 C 278.035156 61.722656 278.035156 61.722656 278.023438 61.722656 C 277.789062 61.722656 277.554688 61.699219 277.324219 61.65625 C 277.25 61.648438 277.179688 61.632812 277.113281 61.613281 C 276.953125 61.574219 276.785156 61.53125 276.625 61.46875 C 276.546875 61.4375 276.472656 61.410156 276.394531 61.378906 C 276.238281 61.308594 276.09375 61.226562 275.941406 61.132812 C 275.875 61.097656 275.804688 61.0625 275.746094 61.015625 C 275.71875 61.003906 275.695312 60.988281 275.679688 60.976562 C 257.671875 48.207031 238.503906 40.433594 215.359375 36.519531 C 215.34375 36.519531 215.324219 36.515625 215.308594 36.515625 C 215.21875 36.496094 215.132812 36.472656 215.039062 36.457031 C 214.996094 36.4375 214.953125 36.429688 214.914062 36.421875 C 214.828125 36.394531 214.742188 36.371094 214.660156 36.335938 C 214.617188 36.320312 214.566406 36.304688 214.523438 36.285156 C 214.449219 36.261719 214.378906 36.226562 214.304688 36.191406 C 214.253906 36.167969 214.203125 36.140625 214.152344 36.113281 C 214.09375 36.082031 214.035156 36.050781 213.976562 36.015625 C 213.917969 35.980469 213.859375 35.945312 213.804688 35.914062 C 213.757812 35.882812 213.707031 35.839844 213.648438 35.804688 C 213.59375 35.761719 213.546875 35.71875 213.484375 35.675781 C 213.4375 35.644531 213.394531 35.601562 213.34375 35.558594 C 213.292969 35.507812 213.242188 35.464844 213.199219 35.421875 C 213.148438 35.371094 213.105469 35.324219 213.054688 35.28125 C 213.015625 35.230469 212.972656 35.1875 212.9375 35.136719 C 212.886719 35.085938 212.84375 35.027344 212.804688 34.964844 C 212.765625 34.925781 212.734375 34.875 212.703125 34.832031 C 212.660156 34.773438 212.617188 34.707031 212.578125 34.636719 C 212.550781 34.597656 212.515625 34.542969 212.492188 34.5 C 212.457031 34.433594 212.421875 34.367188 212.386719 34.289062 C 212.363281 34.25 212.339844 34.199219 212.3125 34.148438 C 212.289062 34.078125 212.261719 34.011719 212.230469 33.9375 C 212.210938 33.886719 212.195312 33.835938 212.171875 33.777344 C 212.152344 33.710938 212.132812 33.640625 212.117188 33.574219 C 212.101562 33.515625 212.078125 33.457031 212.070312 33.390625 C 212.050781 33.328125 212.042969 33.261719 212.035156 33.203125 C 212.019531 33.125 212.007812 33.058594 212 32.984375 C 211.992188 32.925781 211.984375 32.863281 211.984375 32.804688 C 211.976562 32.730469 211.976562 32.652344 211.976562 32.578125 C 211.976562 32.550781 211.964844 32.535156 211.964844 32.507812 L 211.964844 9.699219 C 204.378906 8.617188 197.433594 8.175781 188.277344 8.175781 C 179.53125 8.175781 172.25 8.640625 164.585938 9.714844 L 164.585938 32.265625 C 164.585938 32.351562 164.578125 32.433594 164.578125 32.507812 C 164.566406 32.566406 164.566406 32.621094 164.5625 32.667969 C 164.550781 32.753906 164.535156 32.832031 164.519531 32.914062 C 164.507812 32.96875 164.503906 33.015625 164.492188 33.074219 C 164.476562 33.152344 164.460938 33.21875 164.433594 33.292969 C 164.417969 33.351562 164.398438 33.40625 164.382812 33.464844 C 164.355469 33.53125 164.339844 33.601562 164.3125 33.65625 C 164.292969 33.714844 164.265625 33.777344 164.238281 33.835938 C 164.214844 33.894531 164.183594 33.953125 164.15625 34.011719 C 164.121094 34.074219 164.097656 34.132812 164.0625 34.191406 C 164.027344 34.25 163.996094 34.300781 163.960938 34.359375 C 163.929688 34.410156 163.890625 34.46875 163.851562 34.519531 C 163.816406 34.570312 163.777344 34.628906 163.734375 34.679688 C 163.699219 34.734375 163.65625 34.78125 163.617188 34.824219 C 163.574219 34.882812 163.523438 34.933594 163.480469 34.984375 C 163.4375 35.027344 163.394531 35.070312 163.355469 35.113281 C 163.300781 35.160156 163.242188 35.203125 163.191406 35.253906 C 163.152344 35.296875 163.109375 35.328125 163.058594 35.367188 C 163.007812 35.414062 162.949219 35.457031 162.890625 35.5 C 162.835938 35.535156 162.789062 35.566406 162.746094 35.601562 C 162.6875 35.632812 162.625 35.667969 162.558594 35.710938 C 162.511719 35.734375 162.453125 35.769531 162.398438 35.804688 C 162.339844 35.828125 162.285156 35.855469 162.222656 35.886719 C 162.15625 35.914062 162.09375 35.945312 162.03125 35.972656 C 161.96875 35.988281 161.917969 36.015625 161.867188 36.03125 C 161.792969 36.054688 161.714844 36.082031 161.640625 36.097656 C 161.589844 36.113281 161.53125 36.136719 161.480469 36.140625 C 161.402344 36.167969 161.320312 36.183594 161.234375 36.191406 C 161.21875 36.199219 161.191406 36.210938 161.167969 36.210938 C 139.351562 39.726562 119.679688 47.867188 101.023438 61.125 C 101.007812 61.140625 100.984375 61.148438 100.964844 61.15625 C 100.898438 61.210938 100.824219 61.242188 100.753906 61.285156 C 100.613281 61.367188 100.46875 61.453125 100.316406 61.519531 C 100.230469 61.554688 100.15625 61.589844 100.078125 61.613281 C 99.921875 61.671875 99.757812 61.722656 99.589844 61.757812 C 99.523438 61.773438 99.457031 61.789062 99.386719 61.808594 C 99.152344 61.847656 98.914062 61.875 98.679688 61.875 C 98.679688 61.875 98.679688 61.875 98.671875 61.875 C 98.445312 61.875 98.214844 61.847656 97.984375 61.808594 L 97.835938 61.785156 C 97.617188 61.730469 97.40625 61.671875 97.195312 61.589844 C 97.152344 61.574219 97.109375 61.554688 97.066406 61.535156 C 96.855469 61.445312 96.644531 61.335938 96.453125 61.210938 C 96.441406 61.210938 96.441406 61.210938 96.433594 61.199219 C 96.222656 61.0625 96.039062 60.902344 95.851562 60.726562 C 95.835938 60.710938 95.820312 60.699219 95.800781 60.683594 L 79.9375 44.8125 C 66.53125 54.769531 55.675781 65.441406 46.125 78.03125 L 62.191406 94.113281 C 63.710938 95.636719 63.765625 98.042969 62.371094 99.648438 C 62.261719 99.917969 62.125 100.179688 61.949219 100.433594 C 49.570312 118.039062 41.929688 136.882812 37.894531 159.714844 C 37.894531 159.726562 37.886719 159.730469 37.886719 159.746094 C 37.851562 159.957031 37.792969 160.171875 37.714844 160.375 C 37.710938 160.40625 37.695312 160.441406 37.683594 160.46875 C 37.609375 160.667969 37.527344 160.855469 37.414062 161.035156 C 37.398438 161.066406 37.378906 161.089844 37.355469 161.128906 C 37.253906 161.300781 37.136719 161.472656 37 161.625 C 36.984375 161.648438 36.96875 161.667969 36.949219 161.683594 C 36.808594 161.84375 36.660156 161.996094 36.503906 162.128906 C 36.492188 162.128906 36.492188 162.140625 36.488281 162.140625 C 36.324219 162.277344 36.140625 162.402344 35.953125 162.511719 C 35.9375 162.519531 35.921875 162.535156 35.894531 162.546875 C 35.71875 162.648438 35.523438 162.742188 35.328125 162.816406 C 35.304688 162.824219 35.269531 162.832031 35.242188 162.839844 C 35.050781 162.914062 34.847656 162.96875 34.636719 163.011719 C 34.609375 163.011719 34.578125 163.019531 34.550781 163.019531 C 34.339844 163.050781 34.125 163.078125 33.902344 163.078125 C 33.894531 163.078125 33.894531 163.078125 33.894531 163.078125 C 33.894531 163.078125 33.894531 163.078125 33.886719 163.078125 L 9.664062 163.078125 C 8.660156 170.75 8.195312 178.207031 8.195312 186.792969 C 8.195312 195.15625 8.683594 202.777344 9.714844 210.507812 L 34.113281 210.507812 C 34.207031 210.507812 34.292969 210.511719 34.378906 210.523438 C 34.425781 210.523438 34.476562 210.535156 34.527344 210.535156 C 34.605469 210.539062 34.679688 210.554688 34.761719 210.566406 C 34.816406 210.582031 34.875 210.59375 34.933594 210.597656 C 35 210.617188 35.058594 210.632812 35.128906 210.648438 C 35.195312 210.667969 35.261719 210.683594 35.328125 210.707031 C 35.378906 210.726562 35.433594 210.746094 35.472656 210.761719 C 35.550781 210.785156 35.625 210.820312 35.703125 210.84375 C 35.742188 210.871094 35.785156 210.886719 35.828125 210.902344 C 35.902344 210.945312 35.980469 210.980469 36.054688 211.023438 C 36.097656 211.046875 36.132812 211.070312 36.171875 211.097656 C 36.238281 211.140625 36.316406 211.183594 36.386719 211.226562 C 36.425781 211.257812 36.46875 211.292969 36.511719 211.324219 C 36.570312 211.367188 36.628906 211.410156 36.6875 211.460938 C 36.738281 211.503906 36.78125 211.546875 36.832031 211.589844 C 36.871094 211.628906 36.925781 211.683594 36.976562 211.726562 C 37.027344 211.773438 37.066406 211.832031 37.121094 211.882812 C 37.152344 211.925781 37.195312 211.96875 37.230469 212.011719 C 37.277344 212.070312 37.320312 212.136719 37.371094 212.195312 C 37.398438 212.238281 37.429688 212.28125 37.464844 212.332031 C 37.503906 212.390625 37.542969 212.457031 37.582031 212.515625 C 37.609375 212.570312 37.640625 212.617188 37.667969 212.667969 C 37.699219 212.726562 37.726562 212.796875 37.753906 212.855469 C 37.785156 212.914062 37.8125 212.972656 37.835938 213.03125 C 37.863281 213.089844 37.878906 213.148438 37.90625 213.210938 C 37.925781 213.277344 37.953125 213.355469 37.96875 213.421875 C 37.988281 213.480469 38.003906 213.53125 38.011719 213.589844 C 38.039062 213.664062 38.054688 213.742188 38.074219 213.816406 C 38.074219 213.835938 38.082031 213.851562 38.082031 213.871094 C 42.199219 237.195312 50.015625 256.355469 62.691406 274.167969 C 62.710938 274.183594 62.714844 274.207031 62.734375 274.230469 C 62.808594 274.351562 62.878906 274.476562 62.945312 274.605469 C 63.003906 274.714844 63.074219 274.824219 63.121094 274.941406 C 63.171875 275.0625 63.207031 275.195312 63.246094 275.320312 C 63.285156 275.449219 63.332031 275.566406 63.359375 275.699219 C 63.382812 275.820312 63.390625 275.949219 63.402344 276.074219 C 63.417969 276.210938 63.441406 276.34375 63.441406 276.480469 C 63.441406 276.605469 63.425781 276.722656 63.417969 276.851562 C 63.410156 276.988281 63.402344 277.125 63.375 277.25 C 63.359375 277.375 63.316406 277.492188 63.285156 277.621094 C 63.242188 277.746094 63.214844 277.882812 63.164062 278.007812 C 63.121094 278.121094 63.0625 278.21875 63.011719 278.332031 C 62.945312 278.457031 62.882812 278.589844 62.800781 278.71875 C 62.742188 278.804688 62.671875 278.890625 62.609375 278.972656 C 62.503906 279.105469 62.414062 279.234375 62.292969 279.351562 C 62.277344 279.367188 62.269531 279.386719 62.25 279.402344 L 46.453125 295.226562 C 56.152344 308.042969 67.164062 319.050781 79.976562 328.742188 L 95.742188 312.960938 C 95.761719 312.941406 95.785156 312.925781 95.792969 312.917969 C 95.929688 312.789062 96.070312 312.683594 96.214844 312.570312 C 96.28125 312.519531 96.351562 312.460938 96.425781 312.410156 C 96.578125 312.316406 96.738281 312.238281 96.890625 312.164062 C 96.972656 312.125 97.050781 312.082031 97.136719 312.046875 C 97.296875 311.988281 97.453125 311.945312 97.617188 311.902344 C 97.707031 311.875 97.792969 311.855469 97.886719 311.835938 C 98.046875 311.800781 98.214844 311.792969 98.375 311.785156 C 98.46875 311.777344 98.570312 311.769531 98.660156 311.769531 C 98.824219 311.769531 98.976562 311.792969 99.125 311.8125 C 99.234375 311.828125 99.347656 311.828125 99.445312 311.855469 C 99.582031 311.875 99.710938 311.929688 99.84375 311.972656 C 99.96875 312.003906 100.089844 312.039062 100.214844 312.089844 C 100.328125 312.140625 100.433594 312.207031 100.542969 312.265625 C 100.671875 312.335938 100.804688 312.402344 100.921875 312.488281 C 100.949219 312.503906 100.976562 312.511719 100.992188 312.527344 C 119.484375 325.792969 138.597656 333.625 161.148438 337.171875 C 161.175781 337.171875 161.203125 337.183594 161.21875 337.183594 C 161.3125 337.199219 161.398438 337.214844 161.480469 337.242188 C 161.53125 337.25 161.570312 337.265625 161.625 337.273438 C 161.707031 337.296875 161.78125 337.324219 161.863281 337.351562 C 161.910156 337.367188 161.960938 337.382812 162.011719 337.410156 C 162.089844 337.433594 162.15625 337.460938 162.214844 337.492188 C 162.273438 337.519531 162.332031 337.546875 162.390625 337.578125 C 162.441406 337.605469 162.5 337.636719 162.558594 337.671875 C 162.621094 337.703125 162.679688 337.738281 162.738281 337.78125 C 162.789062 337.816406 162.832031 337.847656 162.878906 337.882812 C 162.9375 337.925781 163 337.96875 163.058594 338.007812 C 163.101562 338.042969 163.144531 338.085938 163.183594 338.121094 C 163.242188 338.167969 163.296875 338.21875 163.34375 338.269531 C 163.386719 338.3125 163.429688 338.355469 163.46875 338.398438 C 163.523438 338.449219 163.566406 338.5 163.617188 338.546875 C 163.65625 338.601562 163.691406 338.640625 163.734375 338.695312 C 163.777344 338.753906 163.808594 338.800781 163.851562 338.851562 C 163.886719 338.910156 163.917969 338.964844 163.960938 339.023438 C 163.996094 339.074219 164.027344 339.132812 164.0625 339.183594 C 164.085938 339.242188 164.121094 339.300781 164.15625 339.359375 C 164.183594 339.417969 164.207031 339.480469 164.238281 339.539062 C 164.265625 339.597656 164.292969 339.65625 164.308594 339.714844 C 164.332031 339.78125 164.355469 339.84375 164.382812 339.90625 C 164.398438 339.96875 164.417969 340.027344 164.433594 340.085938 C 164.449219 340.15625 164.476562 340.230469 164.484375 340.296875 C 164.503906 340.355469 164.507812 340.410156 164.519531 340.464844 C 164.535156 340.542969 164.550781 340.621094 164.5625 340.703125 C 164.5625 340.753906 164.566406 340.8125 164.578125 340.871094 C 164.578125 340.949219 164.585938 341.023438 164.585938 341.109375 L 164.585938 363.980469 C 171.945312 364.960938 179.398438 365.40625 188.277344 365.40625 C 196.65625 365.40625 204.273438 364.925781 211.964844 363.886719 L 211.964844 341.152344 C 211.976562 341.058594 211.976562 340.984375 211.984375 340.898438 C 211.984375 340.839844 211.992188 340.789062 211.992188 340.738281 C 212.007812 340.660156 212.019531 340.585938 212.035156 340.503906 C 212.042969 340.449219 212.050781 340.390625 212.058594 340.332031 C 212.078125 340.265625 212.09375 340.199219 212.113281 340.140625 C 212.128906 340.070312 212.144531 340.003906 212.171875 339.945312 C 212.1875 339.886719 212.203125 339.832031 212.230469 339.78125 C 212.253906 339.707031 212.28125 339.636719 212.3125 339.566406 C 212.328125 339.523438 212.355469 339.46875 212.371094 339.425781 C 212.414062 339.355469 212.449219 339.285156 212.480469 339.214844 C 212.507812 339.164062 212.539062 339.121094 212.566406 339.082031 C 212.609375 339.015625 212.640625 338.949219 212.683594 338.886719 C 212.71875 338.835938 212.761719 338.785156 212.792969 338.742188 C 212.835938 338.683594 212.878906 338.632812 212.921875 338.574219 C 212.960938 338.523438 213.015625 338.472656 213.054688 338.421875 C 213.097656 338.378906 213.140625 338.335938 213.183594 338.296875 C 213.242188 338.238281 213.292969 338.195312 213.351562 338.140625 C 213.394531 338.101562 213.425781 338.066406 213.46875 338.035156 C 213.535156 337.984375 213.59375 337.941406 213.664062 337.890625 C 213.707031 337.867188 213.746094 337.832031 213.789062 337.796875 C 213.847656 337.757812 213.917969 337.71875 213.984375 337.679688 C 214.035156 337.652344 214.078125 337.621094 214.128906 337.59375 C 214.1875 337.566406 214.253906 337.535156 214.3125 337.507812 C 214.371094 337.476562 214.433594 337.453125 214.5 337.425781 C 214.550781 337.398438 214.609375 337.382812 214.667969 337.367188 C 214.734375 337.339844 214.8125 337.3125 214.878906 337.292969 C 214.9375 337.273438 214.988281 337.265625 215.046875 337.25 C 215.125 337.230469 215.199219 337.207031 215.28125 337.199219 C 215.300781 337.1875 215.320312 337.1875 215.335938 337.183594 C 238.140625 333.148438 257.207031 325.242188 275.335938 312.28125 C 275.351562 312.265625 275.378906 312.257812 275.398438 312.238281 C 275.519531 312.15625 275.644531 312.097656 275.78125 312.027344 C 275.890625 311.972656 275.992188 311.902344 276.109375 311.855469 C 276.238281 311.800781 276.363281 311.769531 276.488281 311.726562 C 276.617188 311.683594 276.742188 311.640625 276.871094 311.617188 C 276.996094 311.589844 277.113281 311.582031 277.238281 311.566406 C 277.375 311.550781 277.511719 311.53125 277.644531 311.53125 C 277.773438 311.523438 277.898438 311.550781 278.023438 311.558594 C 278.160156 311.566406 278.289062 311.566406 278.414062 311.589844 C 278.546875 311.617188 278.675781 311.660156 278.800781 311.691406 C 278.921875 311.726562 279.046875 311.761719 279.175781 311.800781 C 279.285156 311.855469 279.394531 311.914062 279.511719 311.972656 C 279.636719 312.027344 279.765625 312.089844 279.882812 312.164062 C 279.976562 312.222656 280.070312 312.300781 280.152344 312.375 C 280.28125 312.472656 280.40625 312.5625 280.523438 312.671875 C 280.539062 312.6875 280.554688 312.699219 280.574219 312.714844 L 296.71875 328.875 C 309.269531 319.34375 320.238281 308.285156 330.109375 295.226562 L 314.070312 279.175781 C 314.054688 279.15625 314.046875 279.140625 314.027344 279.125 C 313.921875 279.003906 313.828125 278.878906 313.726562 278.753906 C 313.660156 278.667969 313.582031 278.574219 313.523438 278.484375 C 313.449219 278.363281 313.390625 278.234375 313.328125 278.109375 C 313.269531 278 313.203125 277.890625 313.160156 277.773438 C 313.117188 277.65625 313.085938 277.527344 313.050781 277.410156 C 313.015625 277.273438 312.972656 277.144531 312.949219 277.011719 C 312.925781 276.890625 312.925781 276.765625 312.914062 276.640625 C 312.898438 276.507812 312.882812 276.378906 312.882812 276.242188 C 312.890625 276.105469 312.90625 275.980469 312.925781 275.847656 C 312.933594 275.71875 312.941406 275.59375 312.96875 275.464844 C 312.992188 275.335938 313.042969 275.222656 313.074219 275.09375 C 313.117188 274.96875 313.152344 274.832031 313.210938 274.703125 C 313.253906 274.59375 313.320312 274.488281 313.378906 274.378906 C 313.449219 274.25 313.515625 274.113281 313.601562 273.996094 C 313.617188 273.972656 313.625 273.953125 313.632812 273.929688 C 327.609375 254.328125 335.347656 235.835938 338.726562 213.953125 C 338.726562 213.929688 338.730469 213.894531 338.742188 213.871094 C 338.757812 213.792969 338.773438 213.71875 338.792969 213.640625 C 338.800781 213.582031 338.816406 213.523438 338.835938 213.464844 C 338.851562 213.394531 338.878906 213.328125 338.902344 213.257812 C 338.917969 213.203125 338.941406 213.132812 338.96875 213.074219 C 338.996094 213.015625 339.019531 212.949219 339.046875 212.890625 C 339.070312 212.832031 339.105469 212.769531 339.128906 212.710938 C 339.164062 212.652344 339.195312 212.59375 339.230469 212.53125 C 339.265625 212.484375 339.289062 212.433594 339.324219 212.375 C 339.363281 212.316406 339.40625 212.257812 339.449219 212.195312 C 339.484375 212.152344 339.519531 212.109375 339.542969 212.070312 C 339.601562 212 339.652344 211.9375 339.710938 211.867188 C 339.738281 211.839844 339.765625 211.808594 339.796875 211.78125 C 339.863281 211.703125 339.933594 211.640625 340.007812 211.570312 C 340.023438 211.554688 340.039062 211.535156 340.066406 211.519531 C 340.152344 211.445312 340.234375 211.378906 340.328125 211.308594 C 340.335938 211.300781 340.34375 211.292969 340.355469 211.28125 C 340.457031 211.214844 340.566406 211.148438 340.667969 211.082031 C 340.671875 211.082031 340.671875 211.082031 340.671875 211.082031 C 340.785156 211.015625 340.902344 210.957031 341.011719 210.894531 C 341.019531 210.894531 341.019531 210.894531 341.019531 210.894531 C 341.128906 210.84375 341.246094 210.792969 341.367188 210.75 C 341.375 210.75 341.382812 210.746094 341.390625 210.746094 C 341.5 210.703125 341.609375 210.667969 341.722656 210.640625 C 341.746094 210.632812 341.773438 210.632812 341.789062 210.625 C 341.890625 210.597656 341.984375 210.582031 342.085938 210.566406 C 342.128906 210.554688 342.167969 210.550781 342.210938 210.550781 C 342.296875 210.535156 342.378906 210.523438 342.464844 210.523438 C 342.511719 210.511719 342.574219 210.511719 342.632812 210.511719 C 342.675781 210.511719 342.707031 210.507812 342.742188 210.507812 L 365.234375 210.507812 C 366.257812 202.980469 366.71875 195.511719 366.71875 186.792969 C 366.71875 178.21875 366.257812 170.765625 365.226562 163.078125 " fill-opacity="1" fill-rule="nonzero"/><path fill="#ffde7e" d="M 251.4375 266.445312 C 251.4375 232.5 223.859375 204.890625 189.945312 204.890625 L 184.96875 204.890625 C 151.058594 204.890625 123.476562 232.5 123.476562 266.445312 C 123.476562 266.519531 123.464844 266.597656 123.460938 266.671875 C 141.738281 281.515625 164.382812 289.640625 188.300781 289.753906 C 211.695312 289.828125 233.714844 282.183594 251.734375 267.957031 C 251.550781 267.488281 251.4375 266.976562 251.4375 266.445312 Z M 222.769531 151.714844 L 222.769531 161.386719 C 222.769531 180.886719 206.929688 196.746094 187.457031 196.746094 C 167.988281 196.746094 152.144531 180.886719 152.144531 161.386719 L 152.144531 151.714844 C 152.144531 132.226562 167.988281 116.367188 187.457031 116.367188 C 206.929688 116.367188 222.769531 132.226562 222.769531 151.714844 " fill-opacity="1" fill-rule="nonzero"/><path fill="#f1f1f2" d="M 291.132812 186.792969 C 291.132812 214.445312 280.355469 240.421875 260.78125 259.929688 C 260.316406 260.386719 259.855469 260.832031 259.390625 261.28125 C 257.210938 231.632812 236.425781 207.085938 208.703125 199.3125 C 221.941406 191.851562 230.914062 177.652344 230.914062 161.386719 L 230.914062 151.714844 C 230.914062 127.730469 211.417969 108.214844 187.457031 108.214844 C 163.496094 108.214844 144.003906 127.730469 144.003906 151.714844 L 144.003906 161.386719 C 144.003906 177.652344 152.972656 191.851562 166.214844 199.3125 C 138.996094 206.941406 118.472656 230.738281 115.667969 259.667969 C 115.566406 259.566406 115.464844 259.472656 115.363281 259.371094 C 95.929688 239.914062 85.292969 214.148438 85.421875 186.808594 C 85.691406 130.027344 131.832031 83.832031 188.277344 83.832031 C 244.992188 83.832031 291.132812 130.019531 291.132812 186.792969 " fill-opacity="1" fill-rule="nonzero"/></svg>